<svg xmlns:xlink="http://www.w3.org/1999/xlink" xmlns="http://www.w3.org/2000/svg" class="vtree" width="6000" height="800"><style>
.vtree-node text { font: 14px sans-serif; }
.vtree-link { fill: none; stroke: #888; stroke-width: 2px; }
.vtree-table { stroke-width: 2px; stroke: steelblue; }
path.vtree-table { fill: white; }
g.vtree-node rect { fill: white; stroke: black; stroke-width: 1px; }
g.vtree-node rect.number-text { fill: #d8f0ed; }
g.vtree-node rect.string-text { fill: #e7f0db; }
g.vtree-node rect.boolean-text { fill: #e1d8f0; }
g.vtree-node rect.null-text { fill: #888; }
</style><g class="vtree-root" transform="translate(2114.915098831114,28.432598983490664)scale(0.8705505632961243)"><g class="vtree-node" transform="translate(480,208)"><g class="vtree-node" transform="translate(-49,0)"><path class="vtree-link" d="M49,12C49,59 1741,59 1741,106"/><path class="vtree-link" d="M49,12C49,59 -511,59 -511,106"/><path class="vtree-link" d="M49,12C49,59 -2203,59 -2203,106"/><g class="vtree-node" transform="translate(-2300,74)"><path class="vtree-link" d="M97,32C97,79 216,79 216,126"/><path class="vtree-link" d="M97,32C97,79 -379,79 -379,126"/><g class="vtree-node" transform="translate(-494,94)"><path class="vtree-link" d="M115,32C115,75 115,75 115,118"/><g class="vtree-node" transform="translate(4,94)"><g transform="translate(103,20)"><g transform="translate(0,0)"><rect class="string-text" x="0" y="0" width="8" height="8"/><text x="4" y="4"> </text></g><g transform="translate(8,0)"><rect class="string-text" x="0" y="0" width="8" height="8"/><text x="4" y="4"> </text></g></g><g><text x="111" y="16" text-anchor="middle">Multilocus enzyme electrophoresis</text></g></g><g transform="translate(0,20)"><g transform="translate(0,0)"><rect class="string-text" x="0" y="0" width="38" height="24"/><text x="4" y="20">label</text></g><g transform="translate(38,0)"><rect class="string-text" x="0" y="0" width="191" height="24"/><text x="4" y="20">EssayIdentificationTypeClass</text></g></g><g><text x="115" y="16" text-anchor="middle">Enzymatic</text></g></g><g class="vtree-node" transform="translate(101,94)"><path class="vtree-link" d="M115,32C115,75 564,75 564,118"/><path class="vtree-link" d="M115,32C115,75 488,75 488,118"/><path class="vtree-link" d="M115,32C115,75 311,75 311,118"/><path class="vtree-link" d="M115,32C115,75 82,75 82,118"/><path class="vtree-link" d="M115,32C115,75 -89,75 -89,118"/><path class="vtree-link" d="M115,32C115,75 -260,75 -260,118"/><g class="vtree-node" transform="translate(-356,94)"><g transform="translate(88,20)"><g transform="translate(0,0)"><rect class="string-text" x="0" y="0" width="8" height="8"/><text x="4" y="4"> </text></g><g transform="translate(8,0)"><rect class="string-text" x="0" y="0" width="8" height="8"/><text x="4" y="4"> </text></g></g><g><text x="96" y="16" text-anchor="middle">WGS Clade and haplogroups</text></g></g><g class="vtree-node" transform="translate(-154,94)"><g transform="translate(57,20)"><g transform="translate(0,0)"><rect class="string-text" x="0" y="0" width="8" height="8"/><text x="4" y="4"> </text></g><g transform="translate(8,0)"><rect class="string-text" x="0" y="0" width="8" height="8"/><text x="4" y="4"> </text></g></g><g><text x="65" y="16" text-anchor="middle">MLST Haplogroups</text></g></g><g class="vtree-node" transform="translate(-15,94)"><g transform="translate(89,20)"><g transform="translate(0,0)"><rect class="string-text" x="0" y="0" width="8" height="8"/><text x="4" y="4"> </text></g><g transform="translate(8,0)"><rect class="string-text" x="0" y="0" width="8" height="8"/><text x="4" y="4"> </text></g></g><g><text x="97" y="16" text-anchor="middle">PCR-RFLP ToxoDB genotype</text></g></g><g class="vtree-node" transform="translate(188,94)"><g transform="translate(115,20)"><g transform="translate(0,0)"><rect class="string-text" x="0" y="0" width="8" height="8"/><text x="4" y="4"> </text></g><g transform="translate(8,0)"><rect class="string-text" x="0" y="0" width="8" height="8"/><text x="4" y="4"> </text></g></g><g><text x="123" y="16" text-anchor="middle">Microsatellite typing 15 MicroSatellites</text></g></g><g class="vtree-node" transform="translate(444,94)"><g transform="translate(36,20)"><g transform="translate(0,0)"><rect class="string-text" x="0" y="0" width="8" height="8"/><text x="4" y="4"> </text></g><g transform="translate(8,0)"><rect class="string-text" x="0" y="0" width="8" height="8"/><text x="4" y="4"> </text></g></g><g><text x="44" y="16" text-anchor="middle">Combination</text></g></g><g class="vtree-node" transform="translate(541,94)"><g transform="translate(15,20)"><g transform="translate(0,0)"><rect class="string-text" x="0" y="0" width="8" height="8"/><text x="4" y="4"> </text></g><g transform="translate(8,0)"><rect class="string-text" x="0" y="0" width="8" height="8"/><text x="4" y="4"> </text></g></g><g><text x="23" y="16" text-anchor="middle">Other</text></g></g><g transform="translate(0,20)"><g transform="translate(0,0)"><rect class="string-text" x="0" y="0" width="38" height="24"/><text x="4" y="20">label</text></g><g transform="translate(38,0)"><rect class="string-text" x="0" y="0" width="191" height="24"/><text x="4" y="20">EssayIdentificationTypeClass</text></g></g><g><text x="115" y="16" text-anchor="middle">Molecular</text></g></g><g transform="translate(0,20)"><g transform="translate(0,0)"><rect class="string-text" x="0" y="0" width="38" height="24"/><text x="4" y="20">label</text></g><g transform="translate(38,0)"><rect class="string-text" x="0" y="0" width="156" height="24"/><text x="4" y="20">EssayIdentificationType</text></g></g><g><text x="97" y="16" text-anchor="middle">Toxoplasma</text></g></g><g class="vtree-node" transform="translate(-608,74)"><path class="vtree-link" d="M97,32C97,79 125,79 125,126"/><path class="vtree-link" d="M97,32C97,75 -972,75 -972,118"/><g class="vtree-node" transform="translate(-995,94)"><g transform="translate(15,20)"><g transform="translate(0,0)"><rect class="string-text" x="0" y="0" width="8" height="8"/><text x="4" y="4"> </text></g><g transform="translate(8,0)"><rect class="string-text" x="0" y="0" width="8" height="8"/><text x="4" y="4"> </text></g></g><g><text x="23" y="16" text-anchor="middle">Other</text></g></g><g class="vtree-node" transform="translate(10,94)"><path class="vtree-link" d="M115,32C115,75 1098,75 1098,118"/><path class="vtree-link" d="M115,32C115,75 963,75 963,118"/><path class="vtree-link" d="M115,32C115,75 825,75 825,118"/><path class="vtree-link" d="M115,32C115,75 709,75 709,118"/><path class="vtree-link" d="M115,32C115,79 274,79 274,126"/><path class="vtree-link" d="M115,32C115,79 -545,79 -545,126"/><g class="vtree-node" transform="translate(-664,94)"><path class="vtree-link" d="M119,32C119,75 502,75 502,118"/><path class="vtree-link" d="M119,32C119,75 415,75 415,118"/><path class="vtree-link" d="M119,32C119,75 255,75 255,118"/><path class="vtree-link" d="M119,32C119,75 42,75 42,118"/><path class="vtree-link" d="M119,32C119,75 -181,75 -181,118"/><g class="vtree-node" transform="translate(-286,94)"><g transform="translate(97,20)"><g transform="translate(0,0)"><rect class="string-text" x="0" y="0" width="8" height="8"/><text x="4" y="4"> </text></g><g transform="translate(8,0)"><rect class="string-text" x="0" y="0" width="8" height="8"/><text x="4" y="4"> </text></g></g><g><text x="105" y="16" text-anchor="middle">Triosephosphate isomerase (tpi)</text></g></g><g class="vtree-node" transform="translate(-67,94)"><g transform="translate(101,20)"><g transform="translate(0,0)"><rect class="string-text" x="0" y="0" width="8" height="8"/><text x="4" y="4"> </text></g><g transform="translate(8,0)"><rect class="string-text" x="0" y="0" width="8" height="8"/><text x="4" y="4"> </text></g></g><g><text x="109" y="16" text-anchor="middle">Glutamate deshydrogenase (gdh)</text></g></g><g class="vtree-node" transform="translate(160,94)"><g transform="translate(87,20)"><g transform="translate(0,0)"><rect class="string-text" x="0" y="0" width="8" height="8"/><text x="4" y="4"> </text></g><g transform="translate(8,0)"><rect class="string-text" x="0" y="0" width="8" height="8"/><text x="4" y="4"> </text></g></g><g><text x="95" y="16" text-anchor="middle">ARN 18S or SSU rRNA gene</text></g></g><g class="vtree-node" transform="translate(360,94)"><g transform="translate(47,20)"><g transform="translate(0,0)"><rect class="string-text" x="0" y="0" width="8" height="8"/><text x="4" y="4"> </text></g><g transform="translate(8,0)"><rect class="string-text" x="0" y="0" width="8" height="8"/><text x="4" y="4"> </text></g></g><g><text x="55" y="16" text-anchor="middle">Beta-giardin(bg)</text></g></g><g class="vtree-node" transform="translate(479,94)"><g transform="translate(15,20)"><g transform="translate(0,0)"><rect class="string-text" x="0" y="0" width="8" height="8"/><text x="4" y="4"> </text></g><g transform="translate(8,0)"><rect class="string-text" x="0" y="0" width="8" height="8"/><text x="4" y="4"> </text></g></g><g><text x="23" y="16" text-anchor="middle">Other</text></g></g><g transform="translate(0,20)"><g transform="translate(0,0)"><rect class="string-text" x="0" y="0" width="38" height="24"/><text x="4" y="20">label</text></g><g transform="translate(38,0)"><rect class="string-text" x="0" y="0" width="199" height="24"/><text x="4" y="20">EssayIdentificationTypeClass2</text></g></g><g><text x="119" y="16" text-anchor="middle">PCR Sequencing analysis</text></g></g><g class="vtree-node" transform="translate(155,94)"><path class="vtree-link" d="M119,32C119,75 500,75 500,118"/><path class="vtree-link" d="M119,32C119,75 413,75 413,118"/><path class="vtree-link" d="M119,32C119,75 253,75 253,118"/><path class="vtree-link" d="M119,32C119,75 41,75 41,118"/><path class="vtree-link" d="M119,32C119,75 -180,75 -180,118"/><g class="vtree-node" transform="translate(-285,94)"><g transform="translate(97,20)"><g transform="translate(0,0)"><rect class="string-text" x="0" y="0" width="8" height="8"/><text x="4" y="4"> </text></g><g transform="translate(8,0)"><rect class="string-text" x="0" y="0" width="8" height="8"/><text x="4" y="4"> </text></g></g><g><text x="105" y="16" text-anchor="middle">Triosephosphate isomerase (tpi)</text></g></g><g class="vtree-node" transform="translate(-66,94)"><g transform="translate(99,20)"><g transform="translate(0,0)"><rect class="string-text" x="0" y="0" width="8" height="8"/><text x="4" y="4"> </text></g><g transform="translate(8,0)"><rect class="string-text" x="0" y="0" width="8" height="8"/><text x="4" y="4"> </text></g></g><g><text x="107" y="16" text-anchor="middle">glutamate deshydrogenase (gdh)</text></g></g><g class="vtree-node" transform="translate(158,94)"><g transform="translate(87,20)"><g transform="translate(0,0)"><rect class="string-text" x="0" y="0" width="8" height="8"/><text x="4" y="4"> </text></g><g transform="translate(8,0)"><rect class="string-text" x="0" y="0" width="8" height="8"/><text x="4" y="4"> </text></g></g><g><text x="95" y="16" text-anchor="middle">ARN 18S or SSU rRNA gene</text></g></g><g class="vtree-node" transform="translate(358,94)"><g transform="translate(47,20)"><g transform="translate(0,0)"><rect class="string-text" x="0" y="0" width="8" height="8"/><text x="4" y="4"> </text></g><g transform="translate(8,0)"><rect class="string-text" x="0" y="0" width="8" height="8"/><text x="4" y="4"> </text></g></g><g><text x="55" y="16" text-anchor="middle">Beta-giardin(bg)</text></g></g><g class="vtree-node" transform="translate(477,94)"><g transform="translate(15,20)"><g transform="translate(0,0)"><rect class="string-text" x="0" y="0" width="8" height="8"/><text x="4" y="4"> </text></g><g transform="translate(8,0)"><rect class="string-text" x="0" y="0" width="8" height="8"/><text x="4" y="4"> </text></g></g><g><text x="23" y="16" text-anchor="middle">Other</text></g></g><g transform="translate(0,20)"><g transform="translate(0,0)"><rect class="string-text" x="0" y="0" width="38" height="24"/><text x="4" y="20">label</text></g><g transform="translate(38,0)"><rect class="string-text" x="0" y="0" width="199" height="24"/><text x="4" y="20">EssayIdentificationTypeClass2</text></g></g><g><text x="119" y="16" text-anchor="middle">PCR-RFLP</text></g></g><g class="vtree-node" transform="translate(687,94)"><g transform="translate(14,20)"><g transform="translate(0,0)"><rect class="string-text" x="0" y="0" width="8" height="8"/><text x="4" y="4"> </text></g><g transform="translate(8,0)"><rect class="string-text" x="0" y="0" width="8" height="8"/><text x="4" y="4"> </text></g></g><g><text x="22" y="16" text-anchor="middle">WGS</text></g></g><g class="vtree-node" transform="translate(740,94)"><g transform="translate(77,20)"><g transform="translate(0,0)"><rect class="string-text" x="0" y="0" width="8" height="8"/><text x="4" y="4"> </text></g><g transform="translate(8,0)"><rect class="string-text" x="0" y="0" width="8" height="8"/><text x="4" y="4"> </text></g></g><g><text x="85" y="16" text-anchor="middle">Multilocus genotyping tool</text></g></g><g class="vtree-node" transform="translate(920,94)"><g transform="translate(35,20)"><g transform="translate(0,0)"><rect class="string-text" x="0" y="0" width="8" height="8"/><text x="4" y="4"> </text></g><g transform="translate(8,0)"><rect class="string-text" x="0" y="0" width="8" height="8"/><text x="4" y="4"> </text></g></g><g><text x="43" y="16" text-anchor="middle">RAPD (18S)</text></g></g><g class="vtree-node" transform="translate(1016,94)"><g transform="translate(74,20)"><g transform="translate(0,0)"><rect class="string-text" x="0" y="0" width="8" height="8"/><text x="4" y="4"> </text></g><g transform="translate(8,0)"><rect class="string-text" x="0" y="0" width="8" height="8"/><text x="4" y="4"> </text></g></g><g><text x="82" y="16" text-anchor="middle">FISH (Fluorescent in situ</text></g></g><g transform="translate(0,20)"><g transform="translate(0,0)"><rect class="string-text" x="0" y="0" width="38" height="24"/><text x="4" y="20">label</text></g><g transform="translate(38,0)"><rect class="string-text" x="0" y="0" width="191" height="24"/><text x="4" y="20">EssayIdentificationTypeClass</text></g></g><g><text x="115" y="16" text-anchor="middle">Molecular (genotyping):</text></g></g><g transform="translate(0,20)"><g transform="translate(0,0)"><rect class="string-text" x="0" y="0" width="38" height="24"/><text x="4" y="20">label</text></g><g transform="translate(38,0)"><rect class="string-text" x="0" y="0" width="156" height="24"/><text x="4" y="20">EssayIdentificationType</text></g></g><g><text x="97" y="16" text-anchor="middle">Giardia</text></g></g><g class="vtree-node" transform="translate(1644,74)"><path class="vtree-link" d="M97,32C97,75 1222,75 1222,118"/><path class="vtree-link" d="M97,32C97,75 1165,75 1165,118"/><path class="vtree-link" d="M97,32C97,75 1103,75 1103,118"/><path class="vtree-link" d="M97,32C97,75 1038,75 1038,118"/><path class="vtree-link" d="M97,32C97,75 932,75 932,118"/><path class="vtree-link" d="M97,32C97,75 781,75 781,118"/><path class="vtree-link" d="M97,32C97,75 619,75 619,118"/><path class="vtree-link" d="M97,32C97,75 447,75 447,118"/><path class="vtree-link" d="M97,32C97,75 298,75 298,118"/><path class="vtree-link" d="M97,32C97,75 165,75 165,118"/><path class="vtree-link" d="M97,32C97,75 27,75 27,118"/><path class="vtree-link" d="M97,32C97,75 -121,75 -121,118"/><path class="vtree-link" d="M97,32C97,75 -326,75 -326,118"/><path class="vtree-link" d="M97,32C97,75 -591,75 -591,118"/><path class="vtree-link" d="M97,32C97,75 -796,75 -796,118"/><path class="vtree-link" d="M97,32C97,75 -961,75 -961,118"/><g class="vtree-node" transform="translate(-1053,94)"><g transform="translate(84,20)"><g transform="translate(0,0)"><rect class="string-text" x="0" y="0" width="8" height="8"/><text x="4" y="4"> </text></g><g transform="translate(8,0)"><rect class="string-text" x="0" y="0" width="8" height="8"/><text x="4" y="4"> </text></g></g><g><text x="92" y="16" text-anchor="middle">High Resolution Melt (HRM)</text></g></g><g class="vtree-node" transform="translate(-860,94)"><g transform="translate(56,20)"><g transform="translate(0,0)"><rect class="string-text" x="0" y="0" width="8" height="8"/><text x="4" y="4"> </text></g><g transform="translate(8,0)"><rect class="string-text" x="0" y="0" width="8" height="8"/><text x="4" y="4"> </text></g></g><g><text x="64" y="16" text-anchor="middle">Nested PCR-RFLP</text></g></g><g class="vtree-node" transform="translate(-723,94)"><g transform="translate(124,20)"><g transform="translate(0,0)"><rect class="string-text" x="0" y="0" width="8" height="8"/><text x="4" y="4"> </text></g><g transform="translate(8,0)"><rect class="string-text" x="0" y="0" width="8" height="8"/><text x="4" y="4"> </text></g></g><g><text x="132" y="16" text-anchor="middle">MLST multilocus gene sequencing/typing</text></g></g><g class="vtree-node" transform="translate(-449,94)"><g transform="translate(115,20)"><g transform="translate(0,0)"><rect class="string-text" x="0" y="0" width="8" height="8"/><text x="4" y="4"> </text></g><g transform="translate(8,0)"><rect class="string-text" x="0" y="0" width="8" height="8"/><text x="4" y="4"> </text></g></g><g><text x="123" y="16" text-anchor="middle">MLFT multilocus fragment typing tools</text></g></g><g class="vtree-node" transform="translate(-194,94)"><g transform="translate(65,20)"><g transform="translate(0,0)"><rect class="string-text" x="0" y="0" width="8" height="8"/><text x="4" y="4"> </text></g><g transform="translate(8,0)"><rect class="string-text" x="0" y="0" width="8" height="8"/><text x="4" y="4"> </text></g></g><g><text x="73" y="16" text-anchor="middle">18 S DNA sequencing</text></g></g><g class="vtree-node" transform="translate(-38,94)"><g transform="translate(57,20)"><g transform="translate(0,0)"><rect class="string-text" x="0" y="0" width="8" height="8"/><text x="4" y="4"> </text></g><g transform="translate(8,0)"><rect class="string-text" x="0" y="0" width="8" height="8"/><text x="4" y="4"> </text></g></g><g><text x="65" y="16" text-anchor="middle">HSP70 sequencing</text></g></g><g class="vtree-node" transform="translate(101,94)"><g transform="translate(56,20)"><g transform="translate(0,0)"><rect class="string-text" x="0" y="0" width="8" height="8"/><text x="4" y="4"> </text></g><g transform="translate(8,0)"><rect class="string-text" x="0" y="0" width="8" height="8"/><text x="4" y="4"> </text></g></g><g><text x="64" y="16" text-anchor="middle">COWP sequencing</text></g></g><g class="vtree-node" transform="translate(239,94)"><g transform="translate(51,20)"><g transform="translate(0,0)"><rect class="string-text" x="0" y="0" width="8" height="8"/><text x="4" y="4"> </text></g><g transform="translate(8,0)"><rect class="string-text" x="0" y="0" width="8" height="8"/><text x="4" y="4"> </text></g></g><g><text x="59" y="16" text-anchor="middle">Cp47 sequencing</text></g></g><g class="vtree-node" transform="translate(367,94)"><g transform="translate(72,20)"><g transform="translate(0,0)"><rect class="string-text" x="0" y="0" width="8" height="8"/><text x="4" y="4"> </text></g><g transform="translate(8,0)"><rect class="string-text" x="0" y="0" width="8" height="8"/><text x="4" y="4"> </text></g></g><g><text x="80" y="16" text-anchor="middle">GP-60 gene sequencing</text></g></g><g class="vtree-node" transform="translate(537,94)"><g transform="translate(74,20)"><g transform="translate(0,0)"><rect class="string-text" x="0" y="0" width="8" height="8"/><text x="4" y="4"> </text></g><g transform="translate(8,0)"><rect class="string-text" x="0" y="0" width="8" height="8"/><text x="4" y="4"> </text></g></g><g><text x="82" y="16" text-anchor="middle">HSP70 gene sequencing</text></g></g><g class="vtree-node" transform="translate(711,94)"><g transform="translate(62,20)"><g transform="translate(0,0)"><rect class="string-text" x="0" y="0" width="8" height="8"/><text x="4" y="4"> </text></g><g transform="translate(8,0)"><rect class="string-text" x="0" y="0" width="8" height="8"/><text x="4" y="4"> </text></g></g><g><text x="70" y="16" text-anchor="middle">T-rich gene fragment</text></g></g><g class="vtree-node" transform="translate(860,94)"><g transform="translate(64,20)"><g transform="translate(0,0)"><rect class="string-text" x="0" y="0" width="8" height="8"/><text x="4" y="4"> </text></g><g transform="translate(8,0)"><rect class="string-text" x="0" y="0" width="8" height="8"/><text x="4" y="4"> </text></g></g><g><text x="72" y="16" text-anchor="middle">Serine repeat antigen</text></g></g><g class="vtree-node" transform="translate(1013,94)"><g transform="translate(17,20)"><g transform="translate(0,0)"><rect class="string-text" x="0" y="0" width="8" height="8"/><text x="4" y="4"> </text></g><g transform="translate(8,0)"><rect class="string-text" x="0" y="0" width="8" height="8"/><text x="4" y="4"> </text></g></g><g><text x="25" y="16" text-anchor="middle">RPGR</text></g></g><g class="vtree-node" transform="translate(1073,94)"><g transform="translate(22,20)"><g transform="translate(0,0)"><rect class="string-text" x="0" y="0" width="8" height="8"/><text x="4" y="4"> </text></g><g transform="translate(8,0)"><rect class="string-text" x="0" y="0" width="8" height="8"/><text x="4" y="4"> </text></g></g><g><text x="30" y="16" text-anchor="middle">MSC6-7</text></g></g><g class="vtree-node" transform="translate(1143,94)"><g transform="translate(14,20)"><g transform="translate(0,0)"><rect class="string-text" x="0" y="0" width="8" height="8"/><text x="4" y="4"> </text></g><g transform="translate(8,0)"><rect class="string-text" x="0" y="0" width="8" height="8"/><text x="4" y="4"> </text></g></g><g><text x="22" y="16" text-anchor="middle">WGS</text></g></g><g class="vtree-node" transform="translate(1196,94)"><g transform="translate(18,20)"><g transform="translate(0,0)"><rect class="string-text" x="0" y="0" width="8" height="8"/><text x="4" y="4"> </text></g><g transform="translate(8,0)"><rect class="string-text" x="0" y="0" width="8" height="8"/><text x="4" y="4"> </text></g></g><g><text x="26" y="16" text-anchor="middle">Others</text></g></g><g transform="translate(0,20)"><g transform="translate(0,0)"><rect class="string-text" x="0" y="0" width="38" height="24"/><text x="4" y="20">label</text></g><g transform="translate(38,0)"><rect class="string-text" x="0" y="0" width="156" height="24"/><text x="4" y="20">EssayIdentificationType</text></g></g><g><text x="97" y="16" text-anchor="middle">Cryptosporidium</text></g></g><g transform="translate(0,0)"><rect class="string-text" x="0" y="0" width="38" height="24"/><text x="4" y="20">label</text></g><g transform="translate(38,0)"><rect class="string-text" x="0" y="0" width="60" height="24"/><text x="4" y="20">Parasite</text></g></g></g></g></svg>