<svg xmlns:xlink="http://www.w3.org/1999/xlink" xmlns="http://www.w3.org/2000/svg" class="vtree" width="7500" height="1000"><style>
.vtree-node text { font: 14px sans-serif; }
.vtree-link { fill: none; stroke: #888; stroke-width: 2px; }
.vtree-table { stroke-width: 2px; stroke: steelblue; }
path.vtree-table { fill: white; }
g.vtree-node rect { fill: white; stroke: black; stroke-width: 1px; }
g.vtree-node rect.number-text { fill: #d8f0ed; }
g.vtree-node rect.string-text { fill: #e7f0db; }
g.vtree-node rect.boolean-text { fill: #e1d8f0; }
g.vtree-node rect.null-text { fill: #888; }
</style><g class="vtree-root" transform="translate(3129.139029937559,53.24823288398261)scale(0.9189586839976291)"><g class="vtree-node" transform="translate(480,208)"><g class="vtree-node" transform="translate(-49,0)"><path class="vtree-link" d="M49,12C49,59 2211,59 2211,106"/><path class="vtree-link" d="M49,12C49,59 -302,59 -302,106"/><path class="vtree-link" d="M49,12C49,59 -2464,59 -2464,106"/><g class="vtree-node" transform="translate(-2551,74)"><path class="vtree-link" d="M87,32C87,79 1166,79 1166,126"/><path class="vtree-link" d="M87,32C87,75 835,75 835,118"/><path class="vtree-link" d="M87,32C87,75 571,75 571,118"/><path class="vtree-link" d="M87,32C87,75 253,75 253,118"/><path class="vtree-link" d="M87,32C87,75 64,75 64,118"/><path class="vtree-link" d="M87,32C87,79 -120,79 -120,126"/><path class="vtree-link" d="M87,32C87,79 -638,79 -638,126"/><path class="vtree-link" d="M87,32C87,79 -1125,79 -1125,126"/><g class="vtree-node" transform="translate(-1226,94)"><path class="vtree-link" d="M101,32C101,75 150,75 150,118"/><path class="vtree-link" d="M101,32C101,75 41,75 41,118"/><g class="vtree-node" transform="translate(-4,94)"><g transform="translate(37,20)"><g transform="translate(0,0)"><rect class="string-text" x="0" y="0" width="8" height="8"/><text x="4" y="4"> </text></g><g transform="translate(8,0)"><rect class="string-text" x="0" y="0" width="8" height="8"/><text x="4" y="4"> </text></g></g><g><text x="45" y="16" text-anchor="middle">Cat bioessay</text></g></g><g class="vtree-node" transform="translate(95,94)"><g transform="translate(47,20)"><g transform="translate(0,0)"><rect class="string-text" x="0" y="0" width="8" height="8"/><text x="4" y="4"> </text></g><g transform="translate(8,0)"><rect class="string-text" x="0" y="0" width="8" height="8"/><text x="4" y="4"> </text></g></g><g><text x="55" y="16" text-anchor="middle">Mouse bioessay</text></g></g><g transform="translate(0,20)"><g transform="translate(0,0)"><rect class="string-text" x="0" y="0" width="38" height="24"/><text x="4" y="20">label</text></g><g transform="translate(38,0)"><rect class="string-text" x="0" y="0" width="163" height="24"/><text x="4" y="20">EssaInfectivityTypeClass</text></g></g><g><text x="101" y="16" text-anchor="middle">Bioassay</text></g></g><g class="vtree-node" transform="translate(-739,94)"><path class="vtree-link" d="M101,32C101,75 451,75 451,118"/><path class="vtree-link" d="M101,32C101,75 331,75 331,118"/><path class="vtree-link" d="M101,32C101,75 154,75 154,118"/><path class="vtree-link" d="M101,32C101,75 25,75 25,118"/><path class="vtree-link" d="M101,32C101,75 -95,75 -95,118"/><path class="vtree-link" d="M101,32C101,75 -224,75 -224,118"/><g class="vtree-node" transform="translate(-272,94)"><g transform="translate(40,20)"><g transform="translate(0,0)"><rect class="string-text" x="0" y="0" width="8" height="8"/><text x="4" y="4"> </text></g><g transform="translate(8,0)"><rect class="string-text" x="0" y="0" width="8" height="8"/><text x="4" y="4"> </text></g></g><g><text x="48" y="16" text-anchor="middle">Vero cell lines</text></g></g><g class="vtree-node" transform="translate(-166,94)"><g transform="translate(63,20)"><g transform="translate(0,0)"><rect class="string-text" x="0" y="0" width="8" height="8"/><text x="4" y="4"> </text></g><g transform="translate(8,0)"><rect class="string-text" x="0" y="0" width="8" height="8"/><text x="4" y="4"> </text></g></g><g><text x="71" y="16" text-anchor="middle">Liquid (fluid samples)</text></g></g><g class="vtree-node" transform="translate(-15,94)"><g transform="translate(32,20)"><g transform="translate(0,0)"><rect class="string-text" x="0" y="0" width="8" height="8"/><text x="4" y="4"> </text></g><g transform="translate(8,0)"><rect class="string-text" x="0" y="0" width="8" height="8"/><text x="4" y="4"> </text></g></g><g><text x="40" y="16" text-anchor="middle">Hep-2 cells</text></g></g><g class="vtree-node" transform="translate(74,94)"><g transform="translate(72,20)"><g transform="translate(0,0)"><rect class="string-text" x="0" y="0" width="8" height="8"/><text x="4" y="4"> </text></g><g transform="translate(8,0)"><rect class="string-text" x="0" y="0" width="8" height="8"/><text x="4" y="4"> </text></g></g><g><text x="80" y="16" text-anchor="middle">Murine L20B fobroblasts</text></g></g><g class="vtree-node" transform="translate(244,94)"><g transform="translate(79,20)"><g transform="translate(0,0)"><rect class="string-text" x="0" y="0" width="8" height="8"/><text x="4" y="4"> </text></g><g transform="translate(8,0)"><rect class="string-text" x="0" y="0" width="8" height="8"/><text x="4" y="4"> </text></g></g><g><text x="87" y="16" text-anchor="middle">Human foreskin fibroblasts</text></g></g><g class="vtree-node" transform="translate(428,94)"><g transform="translate(15,20)"><g transform="translate(0,0)"><rect class="string-text" x="0" y="0" width="8" height="8"/><text x="4" y="4"> </text></g><g transform="translate(8,0)"><rect class="string-text" x="0" y="0" width="8" height="8"/><text x="4" y="4"> </text></g></g><g><text x="23" y="16" text-anchor="middle">Other</text></g></g><g transform="translate(0,20)"><g transform="translate(0,0)"><rect class="string-text" x="0" y="0" width="38" height="24"/><text x="4" y="20">label</text></g><g transform="translate(38,0)"><rect class="string-text" x="0" y="0" width="163" height="24"/><text x="4" y="20">EssaInfectivityTypeClass</text></g></g><g><text x="101" y="16" text-anchor="middle">Culture</text></g></g><g class="vtree-node" transform="translate(-240,94)"><path class="vtree-link" d="M120,32C120,75 229,75 229,118"/><path class="vtree-link" d="M120,32C120,79 89,79 89,126"/><g class="vtree-node" transform="translate(-16,94)"><path class="vtree-link" d="M105,32C105,75 175,75 175,118"/><path class="vtree-link" d="M105,32C105,75 120,75 120,118"/><path class="vtree-link" d="M105,32C105,75 50,75 50,118"/><g class="vtree-node" transform="translate(12,94)"><g transform="translate(30,20)"><g transform="translate(0,0)"><rect class="string-text" x="0" y="0" width="8" height="8"/><text x="4" y="4"> </text></g><g transform="translate(8,0)"><rect class="string-text" x="0" y="0" width="8" height="8"/><text x="4" y="4"> </text></g></g><g><text x="38" y="16" text-anchor="middle">SporoSAG</text></g></g><g class="vtree-node" transform="translate(98,94)"><g transform="translate(14,20)"><g transform="translate(0,0)"><rect class="string-text" x="0" y="0" width="8" height="8"/><text x="4" y="4"> </text></g><g transform="translate(8,0)"><rect class="string-text" x="0" y="0" width="8" height="8"/><text x="4" y="4"> </text></g></g><g><text x="22" y="16" text-anchor="middle">Act11</text></g></g><g class="vtree-node" transform="translate(152,94)"><g transform="translate(15,20)"><g transform="translate(0,0)"><rect class="string-text" x="0" y="0" width="8" height="8"/><text x="4" y="4"> </text></g><g transform="translate(8,0)"><rect class="string-text" x="0" y="0" width="8" height="8"/><text x="4" y="4"> </text></g></g><g><text x="23" y="16" text-anchor="middle">Other</text></g></g><g transform="translate(0,20)"><g transform="translate(0,0)"><rect class="string-text" x="0" y="0" width="38" height="24"/><text x="4" y="20">label</text></g><g transform="translate(38,0)"><rect class="string-text" x="0" y="0" width="171" height="24"/><text x="4" y="20">EssaInfectivityTypeClass2</text></g></g><g><text x="105" y="16" text-anchor="middle">RT-PCR or RT-qPCR</text></g></g><g class="vtree-node" transform="translate(203,94)"><g transform="translate(18,20)"><g transform="translate(0,0)"><rect class="string-text" x="0" y="0" width="8" height="8"/><text x="4" y="4"> </text></g><g transform="translate(8,0)"><rect class="string-text" x="0" y="0" width="8" height="8"/><text x="4" y="4"> </text></g></g><g><text x="26" y="16" text-anchor="middle">Others</text></g></g><g transform="translate(19,20)"><g transform="translate(0,0)"><rect class="string-text" x="0" y="0" width="38" height="24"/><text x="4" y="20">label</text></g><g transform="translate(38,0)"><rect class="string-text" x="0" y="0" width="163" height="24"/><text x="4" y="20">EssaInfectivityTypeClass</text></g></g><g><text x="119" y="16" text-anchor="middle">Molecular methods (Rousseau,2019)</text></g></g><g class="vtree-node" transform="translate(24,94)"><g transform="translate(32,20)"><g transform="translate(0,0)"><rect class="string-text" x="0" y="0" width="8" height="8"/><text x="4" y="4"> </text></g><g transform="translate(8,0)"><rect class="string-text" x="0" y="0" width="8" height="8"/><text x="4" y="4"> </text></g></g><g><text x="40" y="16" text-anchor="middle">Excystation</text></g></g><g class="vtree-node" transform="translate(114,94)"><g transform="translate(131,20)"><g transform="translate(0,0)"><rect class="string-text" x="0" y="0" width="8" height="8"/><text x="4" y="4"> </text></g><g transform="translate(8,0)"><rect class="string-text" x="0" y="0" width="8" height="8"/><text x="4" y="4"> </text></g></g><g><text x="139" y="16" text-anchor="middle">Microscopy - Method based on morphology</text></g></g><g class="vtree-node" transform="translate(401,94)"><g transform="translate(162,20)"><g transform="translate(0,0)"><rect class="string-text" x="0" y="0" width="8" height="8"/><text x="4" y="4"> </text></g><g transform="translate(8,0)"><rect class="string-text" x="0" y="0" width="8" height="8"/><text x="4" y="4"> </text></g></g><g><text x="170" y="16" text-anchor="middle">Method based on physical properties (electrorotation)</text></g></g><g class="vtree-node" transform="translate(751,94)"><g transform="translate(76,20)"><g transform="translate(0,0)"><rect class="string-text" x="0" y="0" width="8" height="8"/><text x="4" y="4"> </text></g><g transform="translate(8,0)"><rect class="string-text" x="0" y="0" width="8" height="8"/><text x="4" y="4"> </text></g></g><g><text x="84" y="16" text-anchor="middle">Vital dye exclusion +PMA</text></g></g><g class="vtree-node" transform="translate(1065,94)"><path class="vtree-link" d="M101,32C101,75 181,75 181,118"/><path class="vtree-link" d="M101,32C101,75 -61,75 -61,118"/><g class="vtree-node" transform="translate(-136,94)"><g transform="translate(67,20)"><g transform="translate(0,0)"><rect class="string-text" x="0" y="0" width="8" height="8"/><text x="4" y="4"> </text></g><g transform="translate(8,0)"><rect class="string-text" x="0" y="0" width="8" height="8"/><text x="4" y="4"> </text></g></g><g><text x="75" y="16" text-anchor="middle">CCqPCR (target 529b)</text></g></g><g class="vtree-node" transform="translate(24,94)"><g transform="translate(149,20)"><g transform="translate(0,0)"><rect class="string-text" x="0" y="0" width="8" height="8"/><text x="4" y="4"> </text></g><g transform="translate(8,0)"><rect class="string-text" x="0" y="0" width="8" height="8"/><text x="4" y="4"> </text></g></g><g><text x="157" y="16" text-anchor="middle">PMA-qPCR (Propidium Monoazide-based qPCR)</text></g></g><g transform="translate(0,20)"><g transform="translate(0,0)"><rect class="string-text" x="0" y="0" width="38" height="24"/><text x="4" y="20">label</text></g><g transform="translate(38,0)"><rect class="string-text" x="0" y="0" width="163" height="24"/><text x="4" y="20">EssaInfectivityTypeClass</text></g></g><g><text x="101" y="16" text-anchor="middle">Combination</text></g></g><g transform="translate(0,20)"><g transform="translate(0,0)"><rect class="string-text" x="0" y="0" width="38" height="24"/><text x="4" y="20">label</text></g><g transform="translate(38,0)"><rect class="string-text" x="0" y="0" width="136" height="24"/><text x="4" y="20">EssayInfectivityType</text></g></g><g><text x="87" y="16" text-anchor="middle">Toxoplasma</text></g></g><g class="vtree-node" transform="translate(-389,74)"><path class="vtree-link" d="M87,32C87,79 823,79 823,126"/><path class="vtree-link" d="M87,32C87,79 517,79 517,126"/><path class="vtree-link" d="M87,32C87,75 252,75 252,118"/><path class="vtree-link" d="M87,32C87,79 16,79 16,126"/><path class="vtree-link" d="M87,32C87,75 -329,75 -329,118"/><path class="vtree-link" d="M87,32C87,75 -629,75 -629,118"/><g class="vtree-node" transform="translate(-749,94)"><g transform="translate(112,20)"><g transform="translate(0,0)"><rect class="string-text" x="0" y="0" width="8" height="8"/><text x="4" y="4"> </text></g><g transform="translate(8,0)"><rect class="string-text" x="0" y="0" width="8" height="8"/><text x="4" y="4"> </text></g></g><g><text x="120" y="16" text-anchor="middle">Vital Dyes inclusion exclusion essays</text></g></g><g class="vtree-node" transform="translate(-499,94)"><g transform="translate(162,20)"><g transform="translate(0,0)"><rect class="string-text" x="0" y="0" width="8" height="8"/><text x="4" y="4"> </text></g><g transform="translate(8,0)"><rect class="string-text" x="0" y="0" width="8" height="8"/><text x="4" y="4"> </text></g></g><g><text x="170" y="16" text-anchor="middle">Method based on physical properties (electrorotation)</text></g></g><g class="vtree-node" transform="translate(-85,94)"><path class="vtree-link" d="M101,32C101,75 244,75 244,118"/><path class="vtree-link" d="M101,32C101,75 74,75 74,118"/><g class="vtree-node" transform="translate(-64,94)"><g transform="translate(130,20)"><g transform="translate(0,0)"><rect class="string-text" x="0" y="0" width="8" height="8"/><text x="4" y="4"> </text></g><g transform="translate(8,0)"><rect class="string-text" x="0" y="0" width="8" height="8"/><text x="4" y="4"> </text></g></g><g><text x="138" y="16" text-anchor="middle">Immunosupressed mongolian gerbill model</text></g></g><g class="vtree-node" transform="translate(221,94)"><g transform="translate(15,20)"><g transform="translate(0,0)"><rect class="string-text" x="0" y="0" width="8" height="8"/><text x="4" y="4"> </text></g><g transform="translate(8,0)"><rect class="string-text" x="0" y="0" width="8" height="8"/><text x="4" y="4"> </text></g></g><g><text x="23" y="16" text-anchor="middle">Other</text></g></g><g transform="translate(0,20)"><g transform="translate(0,0)"><rect class="string-text" x="0" y="0" width="38" height="24"/><text x="4" y="20">label</text></g><g transform="translate(38,0)"><rect class="string-text" x="0" y="0" width="163" height="24"/><text x="4" y="20">EssaInfectivityTypeClass</text></g></g><g><text x="101" y="16" text-anchor="middle">Bioassay</text></g></g><g class="vtree-node" transform="translate(191,94)"><g transform="translate(53,20)"><g transform="translate(0,0)"><rect class="string-text" x="0" y="0" width="8" height="8"/><text x="4" y="4"> </text></g><g transform="translate(8,0)"><rect class="string-text" x="0" y="0" width="8" height="8"/><text x="4" y="4"> </text></g></g><g><text x="61" y="16" text-anchor="middle">Excystation essay</text></g></g><g class="vtree-node" transform="translate(416,94)"><path class="vtree-link" d="M101,32C101,75 274,75 274,118"/><path class="vtree-link" d="M101,32C101,75 198,75 198,118"/><path class="vtree-link" d="M101,32C101,79 26,79 26,126"/><g class="vtree-node" transform="translate(-94,94)"><path class="vtree-link" d="M120,32C120,75 166,75 166,118"/><path class="vtree-link" d="M120,32C120,75 91,75 91,118"/><g class="vtree-node" transform="translate(49,94)"><g transform="translate(34,20)"><g transform="translate(0,0)"><rect class="string-text" x="0" y="0" width="8" height="8"/><text x="4" y="4"> </text></g><g transform="translate(8,0)"><rect class="string-text" x="0" y="0" width="8" height="8"/><text x="4" y="4"> </text></g></g><g><text x="42" y="16" text-anchor="middle">Beta-giardin</text></g></g><g class="vtree-node" transform="translate(143,94)"><g transform="translate(15,20)"><g transform="translate(0,0)"><rect class="string-text" x="0" y="0" width="8" height="8"/><text x="4" y="4"> </text></g><g transform="translate(8,0)"><rect class="string-text" x="0" y="0" width="8" height="8"/><text x="4" y="4"> </text></g></g><g><text x="23" y="16" text-anchor="middle">Other</text></g></g><g transform="translate(15,20)"><g transform="translate(0,0)"><rect class="string-text" x="0" y="0" width="38" height="24"/><text x="4" y="20">label</text></g><g transform="translate(38,0)"><rect class="string-text" x="0" y="0" width="171" height="24"/><text x="4" y="20">EssaInfectivityTypeClass2</text></g></g><g><text x="119" y="16" text-anchor="middle">RT-PCR (reverse transcriptase PCR)</text></g></g><g class="vtree-node" transform="translate(154,94)"><g transform="translate(36,20)"><g transform="translate(0,0)"><rect class="string-text" x="0" y="0" width="8" height="8"/><text x="4" y="4"> </text></g><g transform="translate(8,0)"><rect class="string-text" x="0" y="0" width="8" height="8"/><text x="4" y="4"> </text></g></g><g><text x="44" y="16" text-anchor="middle">Duplex-PCR</text></g></g><g class="vtree-node" transform="translate(251,94)"><g transform="translate(15,20)"><g transform="translate(0,0)"><rect class="string-text" x="0" y="0" width="8" height="8"/><text x="4" y="4"> </text></g><g transform="translate(8,0)"><rect class="string-text" x="0" y="0" width="8" height="8"/><text x="4" y="4"> </text></g></g><g><text x="23" y="16" text-anchor="middle">Other</text></g></g><g transform="translate(0,20)"><g transform="translate(0,0)"><rect class="string-text" x="0" y="0" width="38" height="24"/><text x="4" y="20">label</text></g><g transform="translate(38,0)"><rect class="string-text" x="0" y="0" width="163" height="24"/><text x="4" y="20">EssaInfectivityTypeClass</text></g></g><g><text x="101" y="16" text-anchor="middle">Molecular methods</text></g></g><g class="vtree-node" transform="translate(722,94)"><path class="vtree-link" d="M101,32C101,75 168,75 168,118"/><path class="vtree-link" d="M101,32C101,75 74,75 74,118"/><g class="vtree-node" transform="translate(12,94)"><g transform="translate(54,20)"><g transform="translate(0,0)"><rect class="string-text" x="0" y="0" width="8" height="8"/><text x="4" y="4"> </text></g><g transform="translate(8,0)"><rect class="string-text" x="0" y="0" width="8" height="8"/><text x="4" y="4"> </text></g></g><g><text x="62" y="16" text-anchor="middle">EMA/PMA +qPCR</text></g></g><g class="vtree-node" transform="translate(145,94)"><g transform="translate(15,20)"><g transform="translate(0,0)"><rect class="string-text" x="0" y="0" width="8" height="8"/><text x="4" y="4"> </text></g><g transform="translate(8,0)"><rect class="string-text" x="0" y="0" width="8" height="8"/><text x="4" y="4"> </text></g></g><g><text x="23" y="16" text-anchor="middle">Other</text></g></g><g transform="translate(0,20)"><g transform="translate(0,0)"><rect class="string-text" x="0" y="0" width="38" height="24"/><text x="4" y="20">label</text></g><g transform="translate(38,0)"><rect class="string-text" x="0" y="0" width="163" height="24"/><text x="4" y="20">EssaInfectivityTypeClass</text></g></g><g><text x="101" y="16" text-anchor="middle">Combination</text></g></g><g transform="translate(0,20)"><g transform="translate(0,0)"><rect class="string-text" x="0" y="0" width="38" height="24"/><text x="4" y="20">label</text></g><g transform="translate(38,0)"><rect class="string-text" x="0" y="0" width="136" height="24"/><text x="4" y="20">EssayInfectivityType</text></g></g><g><text x="87" y="16" text-anchor="middle">Giardia</text></g></g><g class="vtree-node" transform="translate(2124,74)"><path class="vtree-link" d="M87,32C87,79 1442,79 1442,126"/><path class="vtree-link" d="M87,32C87,79 695,79 695,126"/><path class="vtree-link" d="M87,32C87,75 201,75 201,118"/><path class="vtree-link" d="M87,32C87,79 30,79 30,126"/><path class="vtree-link" d="M87,32C87,79 -429,79 -429,126"/><path class="vtree-link" d="M87,32C87,75 -879,75 -879,118"/><path class="vtree-link" d="M87,32C87,75 -1151,75 -1151,118"/><path class="vtree-link" d="M87,32C87,79 -1455,79 -1455,126"/><g class="vtree-node" transform="translate(-1556,94)"><path class="vtree-link" d="M101,32C101,75 203,75 203,118"/><path class="vtree-link" d="M101,32C101,75 73,75 73,118"/><g class="vtree-node" transform="translate(-24,94)"><g transform="translate(89,20)"><g transform="translate(0,0)"><rect class="string-text" x="0" y="0" width="8" height="8"/><text x="4" y="4"> </text></g><g transform="translate(8,0)"><rect class="string-text" x="0" y="0" width="8" height="8"/><text x="4" y="4"> </text></g></g><g><text x="97" y="16" text-anchor="middle">Method based on morphology</text></g></g><g class="vtree-node" transform="translate(180,94)"><g transform="translate(15,20)"><g transform="translate(0,0)"><rect class="string-text" x="0" y="0" width="8" height="8"/><text x="4" y="4"> </text></g><g transform="translate(8,0)"><rect class="string-text" x="0" y="0" width="8" height="8"/><text x="4" y="4"> </text></g></g><g><text x="23" y="16" text-anchor="middle">Other</text></g></g><g transform="translate(0,20)"><g transform="translate(0,0)"><rect class="string-text" x="0" y="0" width="38" height="24"/><text x="4" y="20">label</text></g><g transform="translate(38,0)"><rect class="string-text" x="0" y="0" width="163" height="24"/><text x="4" y="20">EssaInfectivityTypeClass</text></g></g><g><text x="101" y="16" text-anchor="middle">Microscopy</text></g></g><g class="vtree-node" transform="translate(-1321,94)"><g transform="translate(162,20)"><g transform="translate(0,0)"><rect class="string-text" x="0" y="0" width="8" height="8"/><text x="4" y="4"> </text></g><g transform="translate(8,0)"><rect class="string-text" x="0" y="0" width="8" height="8"/><text x="4" y="4"> </text></g></g><g><text x="170" y="16" text-anchor="middle">Method based on physical properties (electrorotation)</text></g></g><g class="vtree-node" transform="translate(-971,94)"><g transform="translate(84,20)"><g transform="translate(0,0)"><rect class="string-text" x="0" y="0" width="8" height="8"/><text x="4" y="4"> </text></g><g transform="translate(8,0)"><rect class="string-text" x="0" y="0" width="8" height="8"/><text x="4" y="4"> </text></g></g><g><text x="92" y="16" text-anchor="middle">Vital dye inclusion/exclusion</text></g></g><g class="vtree-node" transform="translate(-530,94)"><path class="vtree-link" d="M101,32C101,75 312,75 312,118"/><path class="vtree-link" d="M101,32C101,75 92,75 92,118"/><path class="vtree-link" d="M101,32C101,75 -118,75 -118,118"/><g class="vtree-node" transform="translate(-247,94)"><g transform="translate(121,20)"><g transform="translate(0,0)"><rect class="string-text" x="0" y="0" width="8" height="8"/><text x="4" y="4"> </text></g><g transform="translate(8,0)"><rect class="string-text" x="0" y="0" width="8" height="8"/><text x="4" y="4"> </text></g></g><g><text x="129" y="16" text-anchor="middle">Neonatal mouse model (Balbc or NMRI)</text></g></g><g class="vtree-node" transform="translate(20,94)"><g transform="translate(64,20)"><g transform="translate(0,0)"><rect class="string-text" x="0" y="0" width="8" height="8"/><text x="4" y="4"> </text></g><g transform="translate(8,0)"><rect class="string-text" x="0" y="0" width="8" height="8"/><text x="4" y="4"> </text></g></g><g><text x="72" y="16" text-anchor="middle">Gnotobiotic pig model</text></g></g><g class="vtree-node" transform="translate(174,94)"><g transform="translate(130,20)"><g transform="translate(0,0)"><rect class="string-text" x="0" y="0" width="8" height="8"/><text x="4" y="4"> </text></g><g transform="translate(8,0)"><rect class="string-text" x="0" y="0" width="8" height="8"/><text x="4" y="4"> </text></g></g><g><text x="138" y="16" text-anchor="middle">Immunosupressed mongolian gerbill model</text></g></g><g transform="translate(0,20)"><g transform="translate(0,0)"><rect class="string-text" x="0" y="0" width="38" height="24"/><text x="4" y="20">label</text></g><g transform="translate(38,0)"><rect class="string-text" x="0" y="0" width="163" height="24"/><text x="4" y="20">EssaInfectivityTypeClass</text></g></g><g><text x="101" y="16" text-anchor="middle">Bioassay</text></g></g><g class="vtree-node" transform="translate(-71,94)"><path class="vtree-link" d="M101,32C101,75 161,75 161,118"/><path class="vtree-link" d="M101,32C101,75 101,75 101,118"/><path class="vtree-link" d="M101,32C101,75 41,75 41,118"/><g class="vtree-node" transform="translate(18,94)"><g transform="translate(15,20)"><g transform="translate(0,0)"><rect class="string-text" x="0" y="0" width="8" height="8"/><text x="4" y="4"> </text></g><g transform="translate(8,0)"><rect class="string-text" x="0" y="0" width="8" height="8"/><text x="4" y="4"> </text></g></g><g><text x="23" y="16" text-anchor="middle">HCP8</text></g></g><g class="vtree-node" transform="translate(74,94)"><g transform="translate(19,20)"><g transform="translate(0,0)"><rect class="string-text" x="0" y="0" width="8" height="8"/><text x="4" y="4"> </text></g><g transform="translate(8,0)"><rect class="string-text" x="0" y="0" width="8" height="8"/><text x="4" y="4"> </text></g></g><g><text x="27" y="16" text-anchor="middle">Caco-2</text></g></g><g class="vtree-node" transform="translate(138,94)"><g transform="translate(15,20)"><g transform="translate(0,0)"><rect class="string-text" x="0" y="0" width="8" height="8"/><text x="4" y="4"> </text></g><g transform="translate(8,0)"><rect class="string-text" x="0" y="0" width="8" height="8"/><text x="4" y="4"> </text></g></g><g><text x="23" y="16" text-anchor="middle">Other</text></g></g><g transform="translate(0,20)"><g transform="translate(0,0)"><rect class="string-text" x="0" y="0" width="38" height="24"/><text x="4" y="20">label</text></g><g transform="translate(38,0)"><rect class="string-text" x="0" y="0" width="163" height="24"/><text x="4" y="20">EssaInfectivityTypeClass</text></g></g><g><text x="101" y="16" text-anchor="middle">Cell culture</text></g></g><g class="vtree-node" transform="translate(140,94)"><g transform="translate(53,20)"><g transform="translate(0,0)"><rect class="string-text" x="0" y="0" width="8" height="8"/><text x="4" y="4"> </text></g><g transform="translate(8,0)"><rect class="string-text" x="0" y="0" width="8" height="8"/><text x="4" y="4"> </text></g></g><g><text x="61" y="16" text-anchor="middle">Excystation essay</text></g></g><g class="vtree-node" transform="translate(594,94)"><path class="vtree-link" d="M101,32C101,75 355,75 355,118"/><path class="vtree-link" d="M101,32C101,75 50,75 50,118"/><path class="vtree-link" d="M101,32C101,79 -203,79 -203,126"/><g class="vtree-node" transform="translate(-323,94)"><path class="vtree-link" d="M120,32C120,75 151,75 151,118"/><path class="vtree-link" d="M120,32C120,75 92,75 92,118"/><g class="vtree-node" transform="translate(65,94)"><g transform="translate(19,20)"><g transform="translate(0,0)"><rect class="string-text" x="0" y="0" width="8" height="8"/><text x="4" y="4"> </text></g><g transform="translate(8,0)"><rect class="string-text" x="0" y="0" width="8" height="8"/><text x="4" y="4"> </text></g></g><g><text x="27" y="16" text-anchor="middle">HSP70</text></g></g><g class="vtree-node" transform="translate(128,94)"><g transform="translate(15,20)"><g transform="translate(0,0)"><rect class="string-text" x="0" y="0" width="8" height="8"/><text x="4" y="4"> </text></g><g transform="translate(8,0)"><rect class="string-text" x="0" y="0" width="8" height="8"/><text x="4" y="4"> </text></g></g><g><text x="23" y="16" text-anchor="middle">Other</text></g></g><g transform="translate(15,20)"><g transform="translate(0,0)"><rect class="string-text" x="0" y="0" width="38" height="24"/><text x="4" y="20">label</text></g><g transform="translate(38,0)"><rect class="string-text" x="0" y="0" width="171" height="24"/><text x="4" y="20">EssaInfectivityTypeClass2</text></g></g><g><text x="119" y="16" text-anchor="middle">RT-PCR (reverse transcriptase PCR)</text></g></g><g class="vtree-node" transform="translate(-75,94)"><g transform="translate(117,20)"><g transform="translate(0,0)"><rect class="string-text" x="0" y="0" width="8" height="8"/><text x="4" y="4"> </text></g><g transform="translate(8,0)"><rect class="string-text" x="0" y="0" width="8" height="8"/><text x="4" y="4"> </text></g></g><g><text x="125" y="16" text-anchor="middle">FISH (Fluorescent in situ hybridization)</text></g></g><g class="vtree-node" transform="translate(185,94)"><g transform="translate(162,20)"><g transform="translate(0,0)"><rect class="string-text" x="0" y="0" width="8" height="8"/><text x="4" y="4"> </text></g><g transform="translate(8,0)"><rect class="string-text" x="0" y="0" width="8" height="8"/><text x="4" y="4"> </text></g></g><g><text x="170" y="16" text-anchor="middle">NASBA (Nucleic Acid Sequence Based Amplification)</text></g></g><g transform="translate(0,20)"><g transform="translate(0,0)"><rect class="string-text" x="0" y="0" width="38" height="24"/><text x="4" y="20">label</text></g><g transform="translate(38,0)"><rect class="string-text" x="0" y="0" width="163" height="24"/><text x="4" y="20">EssaInfectivityTypeClass</text></g></g><g><text x="101" y="16" text-anchor="middle">Molecular methods</text></g></g><g class="vtree-node" transform="translate(1341,94)"><path class="vtree-link" d="M101,32C101,79 275,79 275,126"/><path class="vtree-link" d="M101,32C101,79 -42,79 -42,126"/><g class="vtree-node" transform="translate(-147,94)"><path class="vtree-link" d="M105,32C105,75 252,75 252,118"/><path class="vtree-link" d="M105,32C105,75 193,75 193,118"/><path class="vtree-link" d="M105,32C105,75 131,75 131,118"/><path class="vtree-link" d="M105,32C105,75 15,75 15,118"/><g class="vtree-node" transform="translate(-65,94)"><g transform="translate(72,20)"><g transform="translate(0,0)"><rect class="string-text" x="0" y="0" width="8" height="8"/><text x="4" y="4"> </text></g><g transform="translate(8,0)"><rect class="string-text" x="0" y="0" width="8" height="8"/><text x="4" y="4"> </text></g></g><g><text x="80" y="16" text-anchor="middle">ARN 18S ou SSU rRNA</text></g></g><g class="vtree-node" transform="translate(104,94)"><g transform="translate(19,20)"><g transform="translate(0,0)"><rect class="string-text" x="0" y="0" width="8" height="8"/><text x="4" y="4"> </text></g><g transform="translate(8,0)"><rect class="string-text" x="0" y="0" width="8" height="8"/><text x="4" y="4"> </text></g></g><g><text x="27" y="16" text-anchor="middle">COWP</text></g></g><g class="vtree-node" transform="translate(167,94)"><g transform="translate(18,20)"><g transform="translate(0,0)"><rect class="string-text" x="0" y="0" width="8" height="8"/><text x="4" y="4"> </text></g><g transform="translate(8,0)"><rect class="string-text" x="0" y="0" width="8" height="8"/><text x="4" y="4"> </text></g></g><g><text x="26" y="16" text-anchor="middle">SSP70</text></g></g><g class="vtree-node" transform="translate(229,94)"><g transform="translate(15,20)"><g transform="translate(0,0)"><rect class="string-text" x="0" y="0" width="8" height="8"/><text x="4" y="4"> </text></g><g transform="translate(8,0)"><rect class="string-text" x="0" y="0" width="8" height="8"/><text x="4" y="4"> </text></g></g><g><text x="23" y="16" text-anchor="middle">Other</text></g></g><g transform="translate(0,20)"><g transform="translate(0,0)"><rect class="string-text" x="0" y="0" width="38" height="24"/><text x="4" y="20">label</text></g><g transform="translate(38,0)"><rect class="string-text" x="0" y="0" width="171" height="24"/><text x="4" y="20">EssaInfectivityTypeClass2</text></g></g><g><text x="105" y="16" text-anchor="middle">EMA/PMA +PCR</text></g></g><g class="vtree-node" transform="translate(170,94)"><path class="vtree-link" d="M105,32C105,75 221,75 221,118"/><path class="vtree-link" d="M105,32C105,75 162,75 162,118"/><path class="vtree-link" d="M105,32C105,75 47,75 47,118"/><g class="vtree-node" transform="translate(-33,94)"><g transform="translate(72,20)"><g transform="translate(0,0)"><rect class="string-text" x="0" y="0" width="8" height="8"/><text x="4" y="4"> </text></g><g transform="translate(8,0)"><rect class="string-text" x="0" y="0" width="8" height="8"/><text x="4" y="4"> </text></g></g><g><text x="80" y="16" text-anchor="middle">ARN 18S ou SSU rRNA</text></g></g><g class="vtree-node" transform="translate(136,94)"><g transform="translate(18,20)"><g transform="translate(0,0)"><rect class="string-text" x="0" y="0" width="8" height="8"/><text x="4" y="4"> </text></g><g transform="translate(8,0)"><rect class="string-text" x="0" y="0" width="8" height="8"/><text x="4" y="4"> </text></g></g><g><text x="26" y="16" text-anchor="middle">SSP70</text></g></g><g class="vtree-node" transform="translate(198,94)"><g transform="translate(15,20)"><g transform="translate(0,0)"><rect class="string-text" x="0" y="0" width="8" height="8"/><text x="4" y="4"> </text></g><g transform="translate(8,0)"><rect class="string-text" x="0" y="0" width="8" height="8"/><text x="4" y="4"> </text></g></g><g><text x="23" y="16" text-anchor="middle">Other</text></g></g><g transform="translate(0,20)"><g transform="translate(0,0)"><rect class="string-text" x="0" y="0" width="38" height="24"/><text x="4" y="20">label</text></g><g transform="translate(38,0)"><rect class="string-text" x="0" y="0" width="171" height="24"/><text x="4" y="20">EssaInfectivityTypeClass2</text></g></g><g><text x="105" y="16" text-anchor="middle">EMA/PMA +qPCR</text></g></g><g transform="translate(0,20)"><g transform="translate(0,0)"><rect class="string-text" x="0" y="0" width="38" height="24"/><text x="4" y="20">label</text></g><g transform="translate(38,0)"><rect class="string-text" x="0" y="0" width="163" height="24"/><text x="4" y="20">EssaInfectivityTypeClass</text></g></g><g><text x="101" y="16" text-anchor="middle">Combination</text></g></g><g transform="translate(0,20)"><g transform="translate(0,0)"><rect class="string-text" x="0" y="0" width="38" height="24"/><text x="4" y="20">label</text></g><g transform="translate(38,0)"><rect class="string-text" x="0" y="0" width="136" height="24"/><text x="4" y="20">EssayInfectivityType</text></g></g><g><text x="87" y="16" text-anchor="middle">Cryptosporidium</text></g></g><g transform="translate(0,0)"><rect class="string-text" x="0" y="0" width="38" height="24"/><text x="4" y="20">label</text></g><g transform="translate(38,0)"><rect class="string-text" x="0" y="0" width="60" height="24"/><text x="4" y="20">Parasite</text></g></g></g></g></svg>