<svg xmlns:xlink="http://www.w3.org/1999/xlink" xmlns="http://www.w3.org/2000/svg" class="vtree" width="1400" height="800"><style>
.vtree-node text { font: 14px sans-serif; }
.vtree-link { fill: none; stroke: #888; stroke-width: 2px; }
.vtree-table { stroke-width: 2px; stroke: steelblue; }
path.vtree-table { fill: white; }
g.vtree-node rect { fill: white; stroke: black; stroke-width: 1px; }
g.vtree-node rect.number-text { fill: #d8f0ed; }
g.vtree-node rect.string-text { fill: #e7f0db; }
g.vtree-node rect.boolean-text { fill: #e1d8f0; }
g.vtree-node rect.null-text { fill: #888; }
</style><g class="vtree-root" transform="translate(149,-133)scale(1)"><g class="vtree-node" transform="translate(480,302)"><g class="vtree-node" transform="translate(-49,0)"><path class="vtree-link" d="M49,12C49,59 168,59 168,106"/><path class="vtree-link" d="M49,12C49,59 -233,59 -233,106"/><path class="vtree-link" d="M49,12C49,59 -352,59 -352,106"/><g class="vtree-node" transform="translate(-397,74)"><path class="vtree-link" d="M45,32C45,75 73,75 73,118"/><path class="vtree-link" d="M45,32C45,75 21,75 21,118"/><g class="vtree-node" transform="translate(-2,94)"><g transform="translate(15,20)"><g transform="translate(0,0)"><rect class="string-text" x="0" y="0" width="8" height="8"/><text x="4" y="4"> </text></g><g transform="translate(8,0)"><rect class="string-text" x="0" y="0" width="8" height="8"/><text x="4" y="4"> </text></g></g><g><text x="23" y="16" text-anchor="middle">Gondi</text></g></g><g class="vtree-node" transform="translate(54,94)"><g transform="translate(11,20)"><g transform="translate(0,0)"><rect class="string-text" x="0" y="0" width="8" height="8"/><text x="4" y="4"> </text></g><g transform="translate(8,0)"><rect class="string-text" x="0" y="0" width="8" height="8"/><text x="4" y="4"> </text></g></g><g><text x="19" y="16" text-anchor="middle">SPP</text></g></g><g transform="translate(0,20)"><g transform="translate(0,0)"><rect class="string-text" x="0" y="0" width="38" height="24"/><text x="4" y="20">label</text></g><g transform="translate(38,0)"><rect class="string-text" x="0" y="0" width="52" height="24"/><text x="4" y="20">Specie</text></g></g><g><text x="45" y="16" text-anchor="middle">Toxoplasma</text></g></g><g class="vtree-node" transform="translate(-278,74)"><path class="vtree-link" d="M45,32C45,75 90,75 90,118"/><path class="vtree-link" d="M45,32C45,75 22,75 22,118"/><g class="vtree-node" transform="translate(-18,94)"><g transform="translate(32,20)"><g transform="translate(0,0)"><rect class="string-text" x="0" y="0" width="8" height="8"/><text x="4" y="4"> </text></g><g transform="translate(8,0)"><rect class="string-text" x="0" y="0" width="8" height="8"/><text x="4" y="4"> </text></g></g><g><text x="40" y="16" text-anchor="middle">Duodenalis</text></g></g><g class="vtree-node" transform="translate(71,94)"><g transform="translate(11,20)"><g transform="translate(0,0)"><rect class="string-text" x="0" y="0" width="8" height="8"/><text x="4" y="4"> </text></g><g transform="translate(8,0)"><rect class="string-text" x="0" y="0" width="8" height="8"/><text x="4" y="4"> </text></g></g><g><text x="19" y="16" text-anchor="middle">SPP</text></g></g><g transform="translate(0,20)"><g transform="translate(0,0)"><rect class="string-text" x="0" y="0" width="38" height="24"/><text x="4" y="20">label</text></g><g transform="translate(38,0)"><rect class="string-text" x="0" y="0" width="52" height="24"/><text x="4" y="20">Specie</text></g></g><g><text x="45" y="16" text-anchor="middle">Giardia</text></g></g><g class="vtree-node" transform="translate(112,74)"><path class="vtree-link" d="M56,32C56,75 366,75 366,118"/><path class="vtree-link" d="M56,32C56,75 304,75 304,118"/><path class="vtree-link" d="M56,32C56,75 240,75 240,118"/><path class="vtree-link" d="M56,32C56,75 189,75 189,118"/><path class="vtree-link" d="M56,32C56,75 125,75 125,118"/><path class="vtree-link" d="M56,32C56,75 58,75 58,118"/><path class="vtree-link" d="M56,32C56,75 -10,75 -10,118"/><path class="vtree-link" d="M56,32C56,75 -96,75 -96,118"/><path class="vtree-link" d="M56,32C56,75 -175,75 -175,118"/><path class="vtree-link" d="M56,32C56,75 -243,75 -243,118"/><g class="vtree-node" transform="translate(-272,94)"><g transform="translate(21,20)"><g transform="translate(0,0)"><rect class="string-text" x="0" y="0" width="8" height="8"/><text x="4" y="4"> </text></g><g transform="translate(8,0)"><rect class="string-text" x="0" y="0" width="8" height="8"/><text x="4" y="4"> </text></g></g><g><text x="29" y="16" text-anchor="middle">Parvum</text></g></g><g class="vtree-node" transform="translate(-205,94)"><g transform="translate(22,20)"><g transform="translate(0,0)"><rect class="string-text" x="0" y="0" width="8" height="8"/><text x="4" y="4"> </text></g><g transform="translate(8,0)"><rect class="string-text" x="0" y="0" width="8" height="8"/><text x="4" y="4"> </text></g></g><g><text x="30" y="16" text-anchor="middle">Hominis</text></g></g><g class="vtree-node" transform="translate(-136,94)"><g transform="translate(32,20)"><g transform="translate(0,0)"><rect class="string-text" x="0" y="0" width="8" height="8"/><text x="4" y="4"> </text></g><g transform="translate(8,0)"><rect class="string-text" x="0" y="0" width="8" height="8"/><text x="4" y="4"> </text></g></g><g><text x="40" y="16" text-anchor="middle">Meleagridis</text></g></g><g class="vtree-node" transform="translate(-46,94)"><g transform="translate(28,20)"><g transform="translate(0,0)"><rect class="string-text" x="0" y="0" width="8" height="8"/><text x="4" y="4"> </text></g><g transform="translate(8,0)"><rect class="string-text" x="0" y="0" width="8" height="8"/><text x="4" y="4"> </text></g></g><g><text x="36" y="16" text-anchor="middle">Ubiquitum</text></g></g><g class="vtree-node" transform="translate(36,94)"><g transform="translate(14,20)"><g transform="translate(0,0)"><rect class="string-text" x="0" y="0" width="8" height="8"/><text x="4" y="4"> </text></g><g transform="translate(8,0)"><rect class="string-text" x="0" y="0" width="8" height="8"/><text x="4" y="4"> </text></g></g><g><text x="22" y="16" text-anchor="middle">Canis</text></g></g><g class="vtree-node" transform="translate(90,94)"><g transform="translate(27,20)"><g transform="translate(0,0)"><rect class="string-text" x="0" y="0" width="8" height="8"/><text x="4" y="4"> </text></g><g transform="translate(8,0)"><rect class="string-text" x="0" y="0" width="8" height="8"/><text x="4" y="4"> </text></g></g><g><text x="35" y="16" text-anchor="middle">Cuniculus</text></g></g><g class="vtree-node" transform="translate(170,94)"><g transform="translate(11,20)"><g transform="translate(0,0)"><rect class="string-text" x="0" y="0" width="8" height="8"/><text x="4" y="4"> </text></g><g transform="translate(8,0)"><rect class="string-text" x="0" y="0" width="8" height="8"/><text x="4" y="4"> </text></g></g><g><text x="19" y="16" text-anchor="middle">Felis</text></g></g><g class="vtree-node" transform="translate(218,94)"><g transform="translate(14,20)"><g transform="translate(0,0)"><rect class="string-text" x="0" y="0" width="8" height="8"/><text x="4" y="4"> </text></g><g transform="translate(8,0)"><rect class="string-text" x="0" y="0" width="8" height="8"/><text x="4" y="4"> </text></g></g><g><text x="22" y="16" text-anchor="middle">Muris</text></g></g><g class="vtree-node" transform="translate(271,94)"><g transform="translate(25,20)"><g transform="translate(0,0)"><rect class="string-text" x="0" y="0" width="8" height="8"/><text x="4" y="4"> </text></g><g transform="translate(8,0)"><rect class="string-text" x="0" y="0" width="8" height="8"/><text x="4" y="4"> </text></g></g><g><text x="33" y="16" text-anchor="middle">Viatorum</text></g></g><g class="vtree-node" transform="translate(347,94)"><g transform="translate(11,20)"><g transform="translate(0,0)"><rect class="string-text" x="0" y="0" width="8" height="8"/><text x="4" y="4"> </text></g><g transform="translate(8,0)"><rect class="string-text" x="0" y="0" width="8" height="8"/><text x="4" y="4"> </text></g></g><g><text x="19" y="16" text-anchor="middle">SPP</text></g></g><g transform="translate(11,20)"><g transform="translate(0,0)"><rect class="string-text" x="0" y="0" width="38" height="24"/><text x="4" y="20">label</text></g><g transform="translate(38,0)"><rect class="string-text" x="0" y="0" width="52" height="24"/><text x="4" y="20">Specie</text></g></g><g><text x="56" y="16" text-anchor="middle">Cryptosporidium</text></g></g><g transform="translate(0,0)"><rect class="string-text" x="0" y="0" width="38" height="24"/><text x="4" y="20">label</text></g><g transform="translate(38,0)"><rect class="string-text" x="0" y="0" width="60" height="24"/><text x="4" y="20">Parasite</text></g></g></g></g></svg>