<svg xmlns:xlink="http://www.w3.org/1999/xlink" xmlns="http://www.w3.org/2000/svg" class="vtree" width="2600" height="800"><style>
.vtree-node text { font: 14px sans-serif; }
.vtree-link { fill: none; stroke: #888; stroke-width: 2px; }
.vtree-table { stroke-width: 2px; stroke: steelblue; }
path.vtree-table { fill: white; }
g.vtree-node rect { fill: white; stroke: black; stroke-width: 1px; }
g.vtree-node rect.number-text { fill: #d8f0ed; }
g.vtree-node rect.string-text { fill: #e7f0db; }
g.vtree-node rect.boolean-text { fill: #e1d8f0; }
g.vtree-node rect.null-text { fill: #888; }
</style><g class="vtree-root" transform="translate(680.6617148050266,-27.425650822501552)scale(1.0000000000000002)"><g class="vtree-node" transform="translate(480,255)"><g class="vtree-node" transform="translate(-49,0)"><path class="vtree-link" d="M49,12C49,59 1095,59 1095,106"/><path class="vtree-link" d="M49,12C49,59 340,59 340,106"/><path class="vtree-link" d="M49,12C49,59 -705,59 -705,106"/><g class="vtree-node" transform="translate(-754,74)"><path class="vtree-link" d="M49,32C49,79 167,79 167,126"/><path class="vtree-link" d="M49,32C49,79 -185,79 -185,126"/><g class="vtree-node" transform="translate(-254,94)"><path class="vtree-link" d="M69,32C69,75 159,75 159,118"/><path class="vtree-link" d="M69,32C69,75 97,75 97,118"/><path class="vtree-link" d="M69,32C69,75 42,75 42,118"/><path class="vtree-link" d="M69,32C69,75 3,75 3,118"/><path class="vtree-link" d="M69,32C69,75 -32,75 -32,118"/><g class="vtree-node" transform="translate(-44,94)"><g transform="translate(4,20)"><g transform="translate(0,0)"><rect class="string-text" x="0" y="0" width="8" height="8"/><text x="4" y="4"> </text></g><g transform="translate(8,0)"><rect class="string-text" x="0" y="0" width="8" height="8"/><text x="4" y="4"> </text></g></g><g><text x="12" y="16" text-anchor="middle">GI</text></g></g><g class="vtree-node" transform="translate(-11,94)"><g transform="translate(6,20)"><g transform="translate(0,0)"><rect class="string-text" x="0" y="0" width="8" height="8"/><text x="4" y="4"> </text></g><g transform="translate(8,0)"><rect class="string-text" x="0" y="0" width="8" height="8"/><text x="4" y="4"> </text></g></g><g><text x="14" y="16" text-anchor="middle">GII</text></g></g><g class="vtree-node" transform="translate(26,94)"><g transform="translate(8,20)"><g transform="translate(0,0)"><rect class="string-text" x="0" y="0" width="8" height="8"/><text x="4" y="4"> </text></g><g transform="translate(8,0)"><rect class="string-text" x="0" y="0" width="8" height="8"/><text x="4" y="4"> </text></g></g><g><text x="16" y="16" text-anchor="middle">GIII</text></g></g><g class="vtree-node" transform="translate(67,94)"><g transform="translate(22,20)"><g transform="translate(0,0)"><rect class="string-text" x="0" y="0" width="8" height="8"/><text x="4" y="4"> </text></g><g transform="translate(8,0)"><rect class="string-text" x="0" y="0" width="8" height="8"/><text x="4" y="4"> </text></g></g><g><text x="30" y="16" text-anchor="middle">Atypical</text></g></g><g class="vtree-node" transform="translate(136,94)"><g transform="translate(15,20)"><g transform="translate(0,0)"><rect class="string-text" x="0" y="0" width="8" height="8"/><text x="4" y="4"> </text></g><g transform="translate(8,0)"><rect class="string-text" x="0" y="0" width="8" height="8"/><text x="4" y="4"> </text></g></g><g><text x="23" y="16" text-anchor="middle">Mixed</text></g></g><g transform="translate(0,20)"><g transform="translate(0,0)"><rect class="string-text" x="0" y="0" width="38" height="24"/><text x="4" y="20">label</text></g><g transform="translate(38,0)"><rect class="string-text" x="0" y="0" width="99" height="24"/><text x="4" y="20">SubTypeClass</text></g></g><g><text x="69" y="16" text-anchor="middle">New</text></g></g><g class="vtree-node" transform="translate(98,94)"><path class="vtree-link" d="M69,32C69,75 274,75 274,118"/><path class="vtree-link" d="M69,32C69,75 212,75 212,118"/><path class="vtree-link" d="M69,32C69,75 144,75 144,118"/><path class="vtree-link" d="M69,32C69,75 76,75 76,118"/><path class="vtree-link" d="M69,32C69,75 7,75 7,118"/><path class="vtree-link" d="M69,32C69,75 -62,75 -62,118"/><path class="vtree-link" d="M69,32C69,75 -130,75 -130,118"/><g class="vtree-node" transform="translate(-160,94)"><g transform="translate(22,20)"><g transform="translate(0,0)"><rect class="string-text" x="0" y="0" width="8" height="8"/><text x="4" y="4"> </text></g><g transform="translate(8,0)"><rect class="string-text" x="0" y="0" width="8" height="8"/><text x="4" y="4"> </text></g></g><g><text x="30" y="16" text-anchor="middle">Clade A</text></g></g><g class="vtree-node" transform="translate(-91,94)"><g transform="translate(21,20)"><g transform="translate(0,0)"><rect class="string-text" x="0" y="0" width="8" height="8"/><text x="4" y="4"> </text></g><g transform="translate(8,0)"><rect class="string-text" x="0" y="0" width="8" height="8"/><text x="4" y="4"> </text></g></g><g><text x="29" y="16" text-anchor="middle">Clade B</text></g></g><g class="vtree-node" transform="translate(-23,94)"><g transform="translate(22,20)"><g transform="translate(0,0)"><rect class="string-text" x="0" y="0" width="8" height="8"/><text x="4" y="4"> </text></g><g transform="translate(8,0)"><rect class="string-text" x="0" y="0" width="8" height="8"/><text x="4" y="4"> </text></g></g><g><text x="30" y="16" text-anchor="middle">Clade C</text></g></g><g class="vtree-node" transform="translate(46,94)"><g transform="translate(22,20)"><g transform="translate(0,0)"><rect class="string-text" x="0" y="0" width="8" height="8"/><text x="4" y="4"> </text></g><g transform="translate(8,0)"><rect class="string-text" x="0" y="0" width="8" height="8"/><text x="4" y="4"> </text></g></g><g><text x="30" y="16" text-anchor="middle">Clade D</text></g></g><g class="vtree-node" transform="translate(115,94)"><g transform="translate(21,20)"><g transform="translate(0,0)"><rect class="string-text" x="0" y="0" width="8" height="8"/><text x="4" y="4"> </text></g><g transform="translate(8,0)"><rect class="string-text" x="0" y="0" width="8" height="8"/><text x="4" y="4"> </text></g></g><g><text x="29" y="16" text-anchor="middle">Clade E</text></g></g><g class="vtree-node" transform="translate(183,94)"><g transform="translate(21,20)"><g transform="translate(0,0)"><rect class="string-text" x="0" y="0" width="8" height="8"/><text x="4" y="4"> </text></g><g transform="translate(8,0)"><rect class="string-text" x="0" y="0" width="8" height="8"/><text x="4" y="4"> </text></g></g><g><text x="29" y="16" text-anchor="middle">Clade F</text></g></g><g class="vtree-node" transform="translate(251,94)"><g transform="translate(15,20)"><g transform="translate(0,0)"><rect class="string-text" x="0" y="0" width="8" height="8"/><text x="4" y="4"> </text></g><g transform="translate(8,0)"><rect class="string-text" x="0" y="0" width="8" height="8"/><text x="4" y="4"> </text></g></g><g><text x="23" y="16" text-anchor="middle">Mixed</text></g></g><g transform="translate(0,20)"><g transform="translate(0,0)"><rect class="string-text" x="0" y="0" width="38" height="24"/><text x="4" y="20">label</text></g><g transform="translate(38,0)"><rect class="string-text" x="0" y="0" width="99" height="24"/><text x="4" y="20">SubTypeClass</text></g></g><g><text x="69" y="16" text-anchor="middle">Old</text></g></g><g transform="translate(0,20)"><g transform="translate(0,0)"><rect class="string-text" x="0" y="0" width="38" height="24"/><text x="4" y="20">label</text></g><g transform="translate(38,0)"><rect class="string-text" x="0" y="0" width="60" height="24"/><text x="4" y="20">Subtype</text></g></g><g><text x="49" y="16" text-anchor="middle">Toxoplasma</text></g></g><g class="vtree-node" transform="translate(291,74)"><path class="vtree-link" d="M49,32C49,79 519,79 519,126"/><path class="vtree-link" d="M49,32C49,79 -175,79 -175,126"/><g class="vtree-node" transform="translate(-244,94)"><path class="vtree-link" d="M69,32C69,75 510,75 510,118"/><path class="vtree-link" d="M69,32C69,75 427,75 427,118"/><path class="vtree-link" d="M69,32C69,75 316,75 316,118"/><path class="vtree-link" d="M69,32C69,75 206,75 206,118"/><path class="vtree-link" d="M69,32C69,75 96,75 96,118"/><path class="vtree-link" d="M69,32C69,75 -14,75 -14,118"/><path class="vtree-link" d="M69,32C69,75 -125,75 -125,118"/><path class="vtree-link" d="M69,32C69,75 -236,75 -236,118"/><path class="vtree-link" d="M69,32C69,75 -346,75 -346,118"/><g class="vtree-node" transform="translate(-396,94)"><g transform="translate(42,20)"><g transform="translate(0,0)"><rect class="string-text" x="0" y="0" width="8" height="8"/><text x="4" y="4"> </text></g><g transform="translate(8,0)"><rect class="string-text" x="0" y="0" width="8" height="8"/><text x="4" y="4"> </text></g></g><g><text x="50" y="16" text-anchor="middle">Assemblage A</text></g></g><g class="vtree-node" transform="translate(-286,94)"><g transform="translate(42,20)"><g transform="translate(0,0)"><rect class="string-text" x="0" y="0" width="8" height="8"/><text x="4" y="4"> </text></g><g transform="translate(8,0)"><rect class="string-text" x="0" y="0" width="8" height="8"/><text x="4" y="4"> </text></g></g><g><text x="50" y="16" text-anchor="middle">Assemblage B</text></g></g><g class="vtree-node" transform="translate(-176,94)"><g transform="translate(43,20)"><g transform="translate(0,0)"><rect class="string-text" x="0" y="0" width="8" height="8"/><text x="4" y="4"> </text></g><g transform="translate(8,0)"><rect class="string-text" x="0" y="0" width="8" height="8"/><text x="4" y="4"> </text></g></g><g><text x="51" y="16" text-anchor="middle">Assemblage C</text></g></g><g class="vtree-node" transform="translate(-65,94)"><g transform="translate(43,20)"><g transform="translate(0,0)"><rect class="string-text" x="0" y="0" width="8" height="8"/><text x="4" y="4"> </text></g><g transform="translate(8,0)"><rect class="string-text" x="0" y="0" width="8" height="8"/><text x="4" y="4"> </text></g></g><g><text x="51" y="16" text-anchor="middle">Assemblage D</text></g></g><g class="vtree-node" transform="translate(46,94)"><g transform="translate(42,20)"><g transform="translate(0,0)"><rect class="string-text" x="0" y="0" width="8" height="8"/><text x="4" y="4"> </text></g><g transform="translate(8,0)"><rect class="string-text" x="0" y="0" width="8" height="8"/><text x="4" y="4"> </text></g></g><g><text x="50" y="16" text-anchor="middle">Assemblage E</text></g></g><g class="vtree-node" transform="translate(156,94)"><g transform="translate(42,20)"><g transform="translate(0,0)"><rect class="string-text" x="0" y="0" width="8" height="8"/><text x="4" y="4"> </text></g><g transform="translate(8,0)"><rect class="string-text" x="0" y="0" width="8" height="8"/><text x="4" y="4"> </text></g></g><g><text x="50" y="16" text-anchor="middle">Assemblage F</text></g></g><g class="vtree-node" transform="translate(265,94)"><g transform="translate(43,20)"><g transform="translate(0,0)"><rect class="string-text" x="0" y="0" width="8" height="8"/><text x="4" y="4"> </text></g><g transform="translate(8,0)"><rect class="string-text" x="0" y="0" width="8" height="8"/><text x="4" y="4"> </text></g></g><g><text x="51" y="16" text-anchor="middle">Assemblage G</text></g></g><g class="vtree-node" transform="translate(376,94)"><g transform="translate(43,20)"><g transform="translate(0,0)"><rect class="string-text" x="0" y="0" width="8" height="8"/><text x="4" y="4"> </text></g><g transform="translate(8,0)"><rect class="string-text" x="0" y="0" width="8" height="8"/><text x="4" y="4"> </text></g></g><g><text x="51" y="16" text-anchor="middle">Assemblage H</text></g></g><g class="vtree-node" transform="translate(487,94)"><g transform="translate(15,20)"><g transform="translate(0,0)"><rect class="string-text" x="0" y="0" width="8" height="8"/><text x="4" y="4"> </text></g><g transform="translate(8,0)"><rect class="string-text" x="0" y="0" width="8" height="8"/><text x="4" y="4"> </text></g></g><g><text x="23" y="16" text-anchor="middle">Mixed</text></g></g><g transform="translate(0,20)"><g transform="translate(0,0)"><rect class="string-text" x="0" y="0" width="38" height="24"/><text x="4" y="20">label</text></g><g transform="translate(38,0)"><rect class="string-text" x="0" y="0" width="99" height="24"/><text x="4" y="20">SubTypeClass</text></g></g><g><text x="69" y="16" text-anchor="middle">New</text></g></g><g class="vtree-node" transform="translate(450,94)"><path class="vtree-link" d="M69,32C69,75 261,75 261,118"/><path class="vtree-link" d="M69,32C69,75 185,75 185,118"/><path class="vtree-link" d="M69,32C69,75 106,75 106,118"/><path class="vtree-link" d="M69,32C69,75 50,75 50,118"/><path class="vtree-link" d="M69,32C69,75 2,75 2,118"/><path class="vtree-link" d="M69,32C69,75 -52,75 -52,118"/><path class="vtree-link" d="M69,32C69,75 -117,75 -117,118"/><g class="vtree-node" transform="translate(-151,94)"><g transform="translate(26,20)"><g transform="translate(0,0)"><rect class="string-text" x="0" y="0" width="8" height="8"/><text x="4" y="4"> </text></g><g transform="translate(8,0)"><rect class="string-text" x="0" y="0" width="8" height="8"/><text x="4" y="4"> </text></g></g><g><text x="34" y="16" text-anchor="middle">Enteritica</text></g></g><g class="vtree-node" transform="translate(-74,94)"><g transform="translate(14,20)"><g transform="translate(0,0)"><rect class="string-text" x="0" y="0" width="8" height="8"/><text x="4" y="4"> </text></g><g transform="translate(8,0)"><rect class="string-text" x="0" y="0" width="8" height="8"/><text x="4" y="4"> </text></g></g><g><text x="22" y="16" text-anchor="middle">Canis</text></g></g><g class="vtree-node" transform="translate(-20,94)"><g transform="translate(14,20)"><g transform="translate(0,0)"><rect class="string-text" x="0" y="0" width="8" height="8"/><text x="4" y="4"> </text></g><g transform="translate(8,0)"><rect class="string-text" x="0" y="0" width="8" height="8"/><text x="4" y="4"> </text></g></g><g><text x="22" y="16" text-anchor="middle">Bovis</text></g></g><g class="vtree-node" transform="translate(33,94)"><g transform="translate(9,20)"><g transform="translate(0,0)"><rect class="string-text" x="0" y="0" width="8" height="8"/><text x="4" y="4"> </text></g><g transform="translate(8,0)"><rect class="string-text" x="0" y="0" width="8" height="8"/><text x="4" y="4"> </text></g></g><g><text x="17" y="16" text-anchor="middle">Cati</text></g></g><g class="vtree-node" transform="translate(76,94)"><g transform="translate(22,20)"><g transform="translate(0,0)"><rect class="string-text" x="0" y="0" width="8" height="8"/><text x="4" y="4"> </text></g><g transform="translate(8,0)"><rect class="string-text" x="0" y="0" width="8" height="8"/><text x="4" y="4"> </text></g></g><g><text x="30" y="16" text-anchor="middle">Simondi</text></g></g><g class="vtree-node" transform="translate(145,94)"><g transform="translate(32,20)"><g transform="translate(0,0)"><rect class="string-text" x="0" y="0" width="8" height="8"/><text x="4" y="4"> </text></g><g transform="translate(8,0)"><rect class="string-text" x="0" y="0" width="8" height="8"/><text x="4" y="4"> </text></g></g><g><text x="40" y="16" text-anchor="middle">Duodenalis</text></g></g><g class="vtree-node" transform="translate(234,94)"><g transform="translate(19,20)"><g transform="translate(0,0)"><rect class="string-text" x="0" y="0" width="8" height="8"/><text x="4" y="4"> </text></g><g transform="translate(8,0)"><rect class="string-text" x="0" y="0" width="8" height="8"/><text x="4" y="4"> </text></g></g><g><text x="27" y="16" text-anchor="middle">Psittaci</text></g></g><g transform="translate(0,20)"><g transform="translate(0,0)"><rect class="string-text" x="0" y="0" width="38" height="24"/><text x="4" y="20">label</text></g><g transform="translate(38,0)"><rect class="string-text" x="0" y="0" width="99" height="24"/><text x="4" y="20">SubTypeClass</text></g></g><g><text x="69" y="16" text-anchor="middle">Old</text></g></g><g transform="translate(0,20)"><g transform="translate(0,0)"><rect class="string-text" x="0" y="0" width="38" height="24"/><text x="4" y="20">label</text></g><g transform="translate(38,0)"><rect class="string-text" x="0" y="0" width="60" height="24"/><text x="4" y="20">Subtype</text></g></g><g><text x="49" y="16" text-anchor="middle">Giardia</text></g></g><g class="vtree-node" transform="translate(1039,74)"><path class="vtree-link" d="M56,32C56,75 79,75 79,118"/><path class="vtree-link" d="M56,32C56,75 36,75 36,118"/><g class="vtree-node" transform="translate(17,94)"><g transform="translate(11,20)"><g transform="translate(0,0)"><rect class="string-text" x="0" y="0" width="8" height="8"/><text x="4" y="4"> </text></g><g transform="translate(8,0)"><rect class="string-text" x="0" y="0" width="8" height="8"/><text x="4" y="4"> </text></g></g><g><text x="19" y="16" text-anchor="middle">New</text></g></g><g class="vtree-node" transform="translate(64,94)"><g transform="translate(7,20)"><g transform="translate(0,0)"><rect class="string-text" x="0" y="0" width="8" height="8"/><text x="4" y="4"> </text></g><g transform="translate(8,0)"><rect class="string-text" x="0" y="0" width="8" height="8"/><text x="4" y="4"> </text></g></g><g><text x="15" y="16" text-anchor="middle">Old</text></g></g><g transform="translate(7,20)"><g transform="translate(0,0)"><rect class="string-text" x="0" y="0" width="38" height="24"/><text x="4" y="20">label</text></g><g transform="translate(38,0)"><rect class="string-text" x="0" y="0" width="60" height="24"/><text x="4" y="20">Subtype</text></g></g><g><text x="56" y="16" text-anchor="middle">Cryptosporidium</text></g></g><g transform="translate(0,0)"><rect class="string-text" x="0" y="0" width="38" height="24"/><text x="4" y="20">label</text></g><g transform="translate(38,0)"><rect class="string-text" x="0" y="0" width="60" height="24"/><text x="4" y="20">Parasite</text></g></g></g></g></svg>