<?xml version="1.0" standalone="no"?>
<svg xmlns:xlink="http://www.w3.org/1999/xlink" xmlns="http://www.w3.org/2000/svg" class="vtree" width="960" height="800"><style>
.vtree-node text { font: 14px sans-serif; }
.vtree-link { fill: none; stroke: #888; stroke-width: 2px; }
.vtree-table { stroke-width: 2px; stroke: steelblue; }
path.vtree-table { fill: white; }
g.vtree-node rect { fill: white; stroke: black; stroke-width: 1px; }
g.vtree-node rect.number-text { fill: #d8f0ed; }
g.vtree-node rect.string-text { fill: #e7f0db; }
g.vtree-node rect.boolean-text { fill: #e1d8f0; }
g.vtree-node rect.null-text { fill: #888; }
</style><g class="vtree-root" transform="translate(92.12786438177665,32.13841947667987)scale(0.757858283255199)"><g class="vtree-node" transform="translate(480,113)"><g class="vtree-node" transform="translate(-49,0)"><path class="vtree-link" d="M49,12C49,173 425,173 425,334"/><path class="vtree-link" d="M49,12C49,131 48,131 48,250"/><path class="vtree-link" d="M49,12C49,125 -328,125 -328,238"/><g class="vtree-node" transform="translate(-510,74)"><g transform="translate(0,20)"><g transform="translate(0,0)"><rect class="string-text" x="0" y="0" width="240" height="24"/><text x="4" y="20">label</text></g><g transform="translate(240,0)"><rect class="string-text" x="0" y="0" width="124" height="24"/><text x="4" y="20">EssaySamplePrep</text></g><g transform="translate(0,24)"><rect class="string-text" x="0" y="0" width="240" height="24"/><text x="4" y="20">Centrifugation</text></g><g transform="translate(240,24)"><rect class="null-text" x="0" y="0" width="124" height="24"/><text x="4" y="4"/></g><g transform="translate(0,48)"><rect class="string-text" x="0" y="0" width="240" height="24"/><text x="4" y="20">Sequence based Magnetic capture ...</text></g><g transform="translate(240,48)"><rect class="null-text" x="0" y="0" width="124" height="24"/><text x="4" y="4"/></g><g transform="translate(0,72)"><rect class="string-text" x="0" y="0" width="240" height="24"/><text x="4" y="20">Artificial digestion (trypsin or...</text></g><g transform="translate(240,72)"><rect class="null-text" x="0" y="0" width="124" height="24"/><text x="4" y="4"/></g><g transform="translate(0,96)"><rect class="string-text" x="0" y="0" width="240" height="24"/><text x="4" y="20">Percoll gradients</text></g><g transform="translate(240,96)"><rect class="null-text" x="0" y="0" width="124" height="24"/><text x="4" y="4"/></g><g transform="translate(0,120)"><rect class="string-text" x="0" y="0" width="240" height="24"/><text x="4" y="20">Floculation with (Fe2(SO4)3+Al2(...</text></g><g transform="translate(240,120)"><rect class="null-text" x="0" y="0" width="124" height="24"/><text x="4" y="4"/></g><g transform="translate(0,144)"><rect class="string-text" x="0" y="0" width="240" height="24"/><text x="4" y="20">Flottation</text></g><g transform="translate(240,144)"><rect class="null-text" x="0" y="0" width="124" height="24"/><text x="4" y="4"/></g><g transform="translate(0,168)"><rect class="string-text" x="0" y="0" width="240" height="24"/><text x="4" y="20">LMS (lectin)</text></g><g transform="translate(240,168)"><rect class="null-text" x="0" y="0" width="124" height="24"/><text x="4" y="4"/></g><g transform="translate(0,192)"><rect class="string-text" x="0" y="0" width="240" height="24"/><text x="4" y="20">Filtration</text></g><g transform="translate(240,192)"><rect class="null-text" x="0" y="0" width="124" height="24"/><text x="4" y="4"/></g><g transform="translate(0,216)"><rect class="string-text" x="0" y="0" width="240" height="24"/><text x="4" y="20">Flotation in sucrose</text></g><g transform="translate(240,216)"><rect class="null-text" x="0" y="0" width="124" height="24"/><text x="4" y="4"/></g><g transform="translate(0,240)"><rect class="string-text" x="0" y="0" width="240" height="24"/><text x="4" y="20">Magnetic based Capture</text></g><g transform="translate(240,240)"><rect class="null-text" x="0" y="0" width="124" height="24"/><text x="4" y="4"/></g><g transform="translate(0,264)"><rect class="string-text" x="0" y="0" width="240" height="24"/><text x="4" y="20">Other</text></g><g transform="translate(240,264)"><rect class="null-text" x="0" y="0" width="124" height="24"/><text x="4" y="4"/></g></g><g><text x="182" y="16" text-anchor="middle">Toxoplasma</text></g></g><g class="vtree-node" transform="translate(-136,74)"><g transform="translate(0,20)"><g transform="translate(0,0)"><rect class="string-text" x="0" y="0" width="243" height="24"/><text x="4" y="20">label</text></g><g transform="translate(243,0)"><rect class="string-text" x="0" y="0" width="124" height="24"/><text x="4" y="20">EssaySamplePrep</text></g><g transform="translate(0,24)"><rect class="string-text" x="0" y="0" width="243" height="24"/><text x="4" y="20">Immunomagnetic separation (IMS)a...</text></g><g transform="translate(243,24)"><rect class="null-text" x="0" y="0" width="124" height="24"/><text x="4" y="4"/></g><g transform="translate(0,48)"><rect class="string-text" x="0" y="0" width="243" height="24"/><text x="4" y="20">Immunomagnetic separation (IMS)n...</text></g><g transform="translate(243,48)"><rect class="null-text" x="0" y="0" width="124" height="24"/><text x="4" y="4"/></g><g transform="translate(0,72)"><rect class="string-text" x="0" y="0" width="243" height="24"/><text x="4" y="20">Centrifugation+IMS</text></g><g transform="translate(243,72)"><rect class="null-text" x="0" y="0" width="124" height="24"/><text x="4" y="4"/></g><g transform="translate(0,96)"><rect class="string-text" x="0" y="0" width="243" height="24"/><text x="4" y="20">Elution+concentration+IMS</text></g><g transform="translate(243,96)"><rect class="null-text" x="0" y="0" width="124" height="24"/><text x="4" y="4"/></g><g transform="translate(0,120)"><rect class="string-text" x="0" y="0" width="243" height="24"/><text x="4" y="20">Flow cytometry</text></g><g transform="translate(243,120)"><rect class="null-text" x="0" y="0" width="124" height="24"/><text x="4" y="4"/></g><g transform="translate(0,144)"><rect class="string-text" x="0" y="0" width="243" height="24"/><text x="4" y="20">Centrifugation</text></g><g transform="translate(243,144)"><rect class="null-text" x="0" y="0" width="124" height="24"/><text x="4" y="4"/></g><g transform="translate(0,168)"><rect class="string-text" x="0" y="0" width="243" height="24"/><text x="4" y="20">Bailenger concentration method</text></g><g transform="translate(243,168)"><rect class="null-text" x="0" y="0" width="124" height="24"/><text x="4" y="4"/></g><g transform="translate(0,192)"><rect class="string-text" x="0" y="0" width="243" height="24"/><text x="4" y="20">Umeche technic</text></g><g transform="translate(243,192)"><rect class="null-text" x="0" y="0" width="124" height="24"/><text x="4" y="4"/></g><g transform="translate(0,216)"><rect class="string-text" x="0" y="0" width="243" height="24"/><text x="4" y="20">Stomaching or stomaching with gl...</text></g><g transform="translate(243,216)"><rect class="null-text" x="0" y="0" width="124" height="24"/><text x="4" y="4"/></g><g transform="translate(0,240)"><rect class="string-text" x="0" y="0" width="243" height="24"/><text x="4" y="20">Washing or washing +tween</text></g><g transform="translate(243,240)"><rect class="null-text" x="0" y="0" width="124" height="24"/><text x="4" y="4"/></g><g transform="translate(0,264)"><rect class="string-text" x="0" y="0" width="243" height="24"/><text x="4" y="20">Formal-ether</text></g><g transform="translate(243,264)"><rect class="null-text" x="0" y="0" width="124" height="24"/><text x="4" y="4"/></g><g transform="translate(0,288)"><rect class="string-text" x="0" y="0" width="243" height="24"/><text x="4" y="20">Other</text></g><g transform="translate(243,288)"><rect class="null-text" x="0" y="0" width="124" height="24"/><text x="4" y="4"/></g></g><g><text x="184" y="16" text-anchor="middle">Giardia</text></g></g><g class="vtree-node" transform="translate(241,74)"><g transform="translate(0,20)"><g transform="translate(0,0)"><rect class="string-text" x="0" y="0" width="243" height="24"/><text x="4" y="20">label</text></g><g transform="translate(243,0)"><rect class="string-text" x="0" y="0" width="124" height="24"/><text x="4" y="20">EssaySamplePrep</text></g><g transform="translate(0,24)"><rect class="string-text" x="0" y="0" width="243" height="24"/><text x="4" y="20">Centrifugation</text></g><g transform="translate(243,24)"><rect class="null-text" x="0" y="0" width="124" height="24"/><text x="4" y="4"/></g><g transform="translate(0,48)"><rect class="string-text" x="0" y="0" width="243" height="24"/><text x="4" y="20">Surface elution centrifugation</text></g><g transform="translate(243,48)"><rect class="null-text" x="0" y="0" width="124" height="24"/><text x="4" y="4"/></g><g transform="translate(0,72)"><rect class="string-text" x="0" y="0" width="243" height="24"/><text x="4" y="20">Elution+concentration</text></g><g transform="translate(243,72)"><rect class="null-text" x="0" y="0" width="124" height="24"/><text x="4" y="4"/></g><g transform="translate(0,96)"><rect class="string-text" x="0" y="0" width="243" height="24"/><text x="4" y="20">Concentrator</text></g><g transform="translate(243,96)"><rect class="null-text" x="0" y="0" width="124" height="24"/><text x="4" y="4"/></g><g transform="translate(0,120)"><rect class="string-text" x="0" y="0" width="243" height="24"/><text x="4" y="20">Flotation</text></g><g transform="translate(243,120)"><rect class="null-text" x="0" y="0" width="124" height="24"/><text x="4" y="4"/></g><g transform="translate(0,144)"><rect class="string-text" x="0" y="0" width="243" height="24"/><text x="4" y="20">Immunomagnetic separation (IMS)a...</text></g><g transform="translate(243,144)"><rect class="null-text" x="0" y="0" width="124" height="24"/><text x="4" y="4"/></g><g transform="translate(0,168)"><rect class="string-text" x="0" y="0" width="243" height="24"/><text x="4" y="20">Immunomagnetic separation (IMS)a...</text></g><g transform="translate(243,168)"><rect class="null-text" x="0" y="0" width="124" height="24"/><text x="4" y="4"/></g><g transform="translate(0,192)"><rect class="string-text" x="0" y="0" width="243" height="24"/><text x="4" y="20">Immunomagnetic separation (IMS) ...</text></g><g transform="translate(243,192)"><rect class="null-text" x="0" y="0" width="124" height="24"/><text x="4" y="4"/></g><g transform="translate(0,216)"><rect class="string-text" x="0" y="0" width="243" height="24"/><text x="4" y="20">Microfiltration</text></g><g transform="translate(243,216)"><rect class="null-text" x="0" y="0" width="124" height="24"/><text x="4" y="4"/></g><g transform="translate(0,240)"><rect class="string-text" x="0" y="0" width="243" height="24"/><text x="4" y="20">Centrifugation+IMS</text></g><g transform="translate(243,240)"><rect class="null-text" x="0" y="0" width="124" height="24"/><text x="4" y="4"/></g><g transform="translate(0,264)"><rect class="string-text" x="0" y="0" width="243" height="24"/><text x="4" y="20">Elution+concentration+IMS</text></g><g transform="translate(243,264)"><rect class="null-text" x="0" y="0" width="124" height="24"/><text x="4" y="4"/></g><g transform="translate(0,288)"><rect class="string-text" x="0" y="0" width="243" height="24"/><text x="4" y="20">MIFC merthiolate iodine-formalde...</text></g><g transform="translate(243,288)"><rect class="null-text" x="0" y="0" width="124" height="24"/><text x="4" y="4"/></g><g transform="translate(0,312)"><rect class="string-text" x="0" y="0" width="243" height="24"/><text x="4" y="20">Bailanger method</text></g><g transform="translate(243,312)"><rect class="null-text" x="0" y="0" width="124" height="24"/><text x="4" y="4"/></g><g transform="translate(0,336)"><rect class="string-text" x="0" y="0" width="243" height="24"/><text x="4" y="20">Sucrose gradient Laberge</text></g><g transform="translate(243,336)"><rect class="null-text" x="0" y="0" width="124" height="24"/><text x="4" y="4"/></g><g transform="translate(0,360)"><rect class="string-text" x="0" y="0" width="243" height="24"/><text x="4" y="20">Gradient zinc</text></g><g transform="translate(243,360)"><rect class="null-text" x="0" y="0" width="124" height="24"/><text x="4" y="4"/></g><g transform="translate(0,384)"><rect class="string-text" x="0" y="0" width="243" height="24"/><text x="4" y="20">Gradient phycol</text></g><g transform="translate(243,384)"><rect class="null-text" x="0" y="0" width="124" height="24"/><text x="4" y="4"/></g><g transform="translate(0,408)"><rect class="string-text" x="0" y="0" width="243" height="24"/><text x="4" y="20">Gradient percoll</text></g><g transform="translate(243,408)"><rect class="null-text" x="0" y="0" width="124" height="24"/><text x="4" y="4"/></g><g transform="translate(0,432)"><rect class="string-text" x="0" y="0" width="243" height="24"/><text x="4" y="20">Flow cytometry</text></g><g transform="translate(243,432)"><rect class="null-text" x="0" y="0" width="124" height="24"/><text x="4" y="4"/></g><g transform="translate(0,456)"><rect class="string-text" x="0" y="0" width="243" height="24"/><text x="4" y="20">Other</text></g><g transform="translate(243,456)"><rect class="null-text" x="0" y="0" width="124" height="24"/><text x="4" y="4"/></g></g><g><text x="184" y="16" text-anchor="middle">Cryptosporidium</text></g></g><g transform="translate(0,0)"><rect class="string-text" x="0" y="0" width="38" height="24"/><text x="4" y="20">label</text></g><g transform="translate(38,0)"><rect class="string-text" x="0" y="0" width="60" height="24"/><text x="4" y="20">Parasite</text></g></g></g></g></svg>