<svg xmlns:xlink="http://www.w3.org/1999/xlink" xmlns="http://www.w3.org/2000/svg" class="vtree" width="3000" height="800"><style>
.vtree-node text { font: 14px sans-serif; }
.vtree-link { fill: none; stroke: #888; stroke-width: 2px; }
.vtree-table { stroke-width: 2px; stroke: steelblue; }
path.vtree-table { fill: white; }
g.vtree-node rect { fill: white; stroke: black; stroke-width: 1px; }
g.vtree-node rect.number-text { fill: #d8f0ed; }
g.vtree-node rect.string-text { fill: #e7f0db; }
g.vtree-node rect.boolean-text { fill: #e1d8f0; }
g.vtree-node rect.null-text { fill: #888; }
</style><g class="vtree-root" transform="translate(776.7084774525183,-8.089498772003878)scale(1.2125732532083215)"><g class="vtree-node" transform="translate(480,42)"><g class="vtree-node" transform="translate(-138,0)"><path class="vtree-link" d="M138,24C138,83 1163,83 1163,142"/><path class="vtree-link" d="M138,24C138,83 788,83 788,142"/><path class="vtree-link" d="M138,24C138,83 413,83 413,142"/><path class="vtree-link" d="M138,24C138,77 106,77 106,130"/><path class="vtree-link" d="M138,24C138,77 -330,77 -330,130"/><path class="vtree-link" d="M138,24C138,83 -652,83 -652,142"/><path class="vtree-link" d="M138,24C138,83 -867,83 -867,142"/><g class="vtree-node" transform="translate(-947,98)"><path class="vtree-link" d="M80,44C80,145 80,145 80,246"/><g class="vtree-node" transform="translate(-21,118)"><g transform="translate(0,20)"><g transform="translate(0,0)"><rect class="string-text" x="0" y="0" width="114" height="24"/><text x="4" y="20">label</text></g><g transform="translate(114,0)"><rect class="string-text" x="0" y="0" width="88" height="24"/><text x="4" y="20">essay_enum</text></g><g transform="translate(0,24)"><rect class="string-text" x="0" y="0" width="114" height="24"/><text x="4" y="20">BS_5763-9:1993</text></g><g transform="translate(114,24)"><rect class="null-text" x="0" y="0" width="88" height="24"/><text x="4" y="4"/></g><g transform="translate(0,48)"><rect class="string-text" x="0" y="0" width="114" height="24"/><text x="4" y="20">CampyCefex</text></g><g transform="translate(114,48)"><rect class="null-text" x="0" y="0" width="88" height="24"/><text x="4" y="4"/></g><g transform="translate(0,72)"><rect class="string-text" x="0" y="0" width="114" height="24"/><text x="4" y="20">ISO_7937:1997</text></g><g transform="translate(114,72)"><rect class="null-text" x="0" y="0" width="88" height="24"/><text x="4" y="4"/></g><g transform="translate(0,96)"><rect class="string-text" x="0" y="0" width="114" height="24"/><text x="4" y="20">ISO_7937:2004</text></g><g transform="translate(114,96)"><rect class="null-text" x="0" y="0" width="88" height="24"/><text x="4" y="4"/></g><g transform="translate(0,120)"><rect class="string-text" x="0" y="0" width="114" height="24"/><text x="4" y="20">KRANEP</text></g><g transform="translate(114,120)"><rect class="null-text" x="0" y="0" width="88" height="24"/><text x="4" y="4"/></g><g transform="translate(0,144)"><rect class="string-text" x="0" y="0" width="114" height="24"/><text x="4" y="20">PALCAM</text></g><g transform="translate(114,144)"><rect class="null-text" x="0" y="0" width="88" height="24"/><text x="4" y="4"/></g><g transform="translate(0,168)"><rect class="string-text" x="0" y="0" width="114" height="24"/><text x="4" y="20">PHLS_F14</text></g><g transform="translate(114,168)"><rect class="null-text" x="0" y="0" width="88" height="24"/><text x="4" y="4"/></g><g transform="translate(0,192)"><rect class="string-text" x="0" y="0" width="114" height="24"/><text x="4" y="20">TSC</text></g><g transform="translate(114,192)"><rect class="null-text" x="0" y="0" width="88" height="24"/><text x="4" y="4"/></g></g><g><text x="101" y="16" text-anchor="middle">culture</text></g></g><g transform="translate(0,20)"><g transform="translate(0,0)"><rect class="string-text" x="0" y="0" width="38" height="24"/><text x="4" y="20">label</text></g><g transform="translate(38,0)"><rect class="string-text" x="0" y="0" width="122" height="24"/><text x="4" y="20">essay_enum_type</text></g><g transform="translate(0,24)"><rect class="string-text" x="0" y="0" width="38" height="24"/><text x="4" y="20">NA</text></g><g transform="translate(38,24)"><rect class="null-text" x="0" y="0" width="122" height="24"/><text x="4" y="4"/></g></g><g><text x="80" y="16" text-anchor="middle">bacillus_cereus</text></g></g><g class="vtree-node" transform="translate(-732,98)"><path class="vtree-link" d="M80,44C80,121 80,121 80,198"/><g class="vtree-node" transform="translate(-24,118)"><g transform="translate(0,20)"><g transform="translate(0,0)"><rect class="string-text" x="0" y="0" width="119" height="24"/><text x="4" y="20">label</text></g><g transform="translate(119,0)"><rect class="string-text" x="0" y="0" width="88" height="24"/><text x="4" y="20">essay_enum</text></g><g transform="translate(0,24)"><rect class="string-text" x="0" y="0" width="119" height="24"/><text x="4" y="20">FSIS-USDA</text></g><g transform="translate(119,24)"><rect class="null-text" x="0" y="0" width="88" height="24"/><text x="4" y="4"/></g><g transform="translate(0,48)"><rect class="string-text" x="0" y="0" width="119" height="24"/><text x="4" y="20">IDF_145A:1997</text></g><g transform="translate(119,48)"><rect class="null-text" x="0" y="0" width="88" height="24"/><text x="4" y="4"/></g><g transform="translate(0,72)"><rect class="string-text" x="0" y="0" width="119" height="24"/><text x="4" y="20">ISO_6888-1:1999</text></g><g transform="translate(119,72)"><rect class="null-text" x="0" y="0" width="88" height="24"/><text x="4" y="4"/></g><g transform="translate(0,96)"><rect class="string-text" x="0" y="0" width="119" height="24"/><text x="4" y="20">MYP</text></g><g transform="translate(119,96)"><rect class="null-text" x="0" y="0" width="88" height="24"/><text x="4" y="4"/></g></g><g><text x="104" y="16" text-anchor="middle">culture</text></g></g><g transform="translate(0,20)"><g transform="translate(0,0)"><rect class="string-text" x="0" y="0" width="38" height="24"/><text x="4" y="20">label</text></g><g transform="translate(38,0)"><rect class="string-text" x="0" y="0" width="122" height="24"/><text x="4" y="20">essay_enum_type</text></g><g transform="translate(0,24)"><rect class="string-text" x="0" y="0" width="38" height="24"/><text x="4" y="20">NA</text></g><g transform="translate(38,24)"><rect class="null-text" x="0" y="0" width="122" height="24"/><text x="4" y="4"/></g></g><g><text x="80" y="16" text-anchor="middle">campylobacter_spp</text></g></g><g class="vtree-node" transform="translate(-410,98)"><path class="vtree-link" d="M80,32C80,85 226,85 226,138"/><path class="vtree-link" d="M80,32C80,199 12,199 12,366"/><g class="vtree-node" transform="translate(-129,94)"><g transform="translate(0,20)"><g transform="translate(0,0)"><rect class="string-text" x="0" y="0" width="193" height="24"/><text x="4" y="20">label</text></g><g transform="translate(193,0)"><rect class="string-text" x="0" y="0" width="88" height="24"/><text x="4" y="20">essay_enum</text></g><g transform="translate(0,24)"><rect class="string-text" x="0" y="0" width="193" height="24"/><text x="4" y="20">NA</text></g><g transform="translate(193,24)"><rect class="null-text" x="0" y="0" width="88" height="24"/><text x="4" y="4"/></g><g transform="translate(0,48)"><rect class="string-text" x="0" y="0" width="193" height="24"/><text x="4" y="20">ISO_7937:2004</text></g><g transform="translate(193,48)"><rect class="null-text" x="0" y="0" width="88" height="24"/><text x="4" y="4"/></g><g transform="translate(0,72)"><rect class="string-text" x="0" y="0" width="193" height="24"/><text x="4" y="20">ISO_15213:2003</text></g><g transform="translate(193,72)"><rect class="null-text" x="0" y="0" width="88" height="24"/><text x="4" y="4"/></g><g transform="translate(0,96)"><rect class="string-text" x="0" y="0" width="193" height="24"/><text x="4" y="20">ISO_7937:1997</text></g><g transform="translate(193,96)"><rect class="null-text" x="0" y="0" width="88" height="24"/><text x="4" y="4"/></g><g transform="translate(0,120)"><rect class="string-text" x="0" y="0" width="193" height="24"/><text x="4" y="20">ISO_6888-2:2003</text></g><g transform="translate(193,120)"><rect class="null-text" x="0" y="0" width="88" height="24"/><text x="4" y="4"/></g><g transform="translate(0,144)"><rect class="string-text" x="0" y="0" width="193" height="24"/><text x="4" y="20">BS_5763-9:1993</text></g><g transform="translate(193,144)"><rect class="null-text" x="0" y="0" width="88" height="24"/><text x="4" y="4"/></g><g transform="translate(0,168)"><rect class="string-text" x="0" y="0" width="193" height="24"/><text x="4" y="20">PHLS_F14</text></g><g transform="translate(193,168)"><rect class="null-text" x="0" y="0" width="88" height="24"/><text x="4" y="4"/></g><g transform="translate(0,192)"><rect class="string-text" x="0" y="0" width="193" height="24"/><text x="4" y="20">BP+EY</text></g><g transform="translate(193,192)"><rect class="null-text" x="0" y="0" width="88" height="24"/><text x="4" y="4"/></g><g transform="translate(0,216)"><rect class="string-text" x="0" y="0" width="193" height="24"/><text x="4" y="20">FDA</text></g><g transform="translate(193,216)"><rect class="null-text" x="0" y="0" width="88" height="24"/><text x="4" y="4"/></g><g transform="translate(0,240)"><rect class="string-text" x="0" y="0" width="193" height="24"/><text x="4" y="20">ListeriaSelective</text></g><g transform="translate(193,240)"><rect class="null-text" x="0" y="0" width="88" height="24"/><text x="4" y="4"/></g><g transform="translate(0,264)"><rect class="string-text" x="0" y="0" width="193" height="24"/><text x="4" y="20">MPN</text></g><g transform="translate(193,264)"><rect class="null-text" x="0" y="0" width="88" height="24"/><text x="4" y="4"/></g><g transform="translate(0,288)"><rect class="string-text" x="0" y="0" width="193" height="24"/><text x="4" y="20">PHLS_F15</text></g><g transform="translate(193,288)"><rect class="null-text" x="0" y="0" width="88" height="24"/><text x="4" y="4"/></g><g transform="translate(0,312)"><rect class="string-text" x="0" y="0" width="193" height="24"/><text x="4" y="20">TSC</text></g><g transform="translate(193,312)"><rect class="null-text" x="0" y="0" width="88" height="24"/><text x="4" y="4"/></g><g transform="translate(0,336)"><rect class="string-text" x="0" y="0" width="193" height="24"/><text x="4" y="20">Sulfite-polymyxin-sulfadiazine</text></g><g transform="translate(193,336)"><rect class="null-text" x="0" y="0" width="88" height="24"/><text x="4" y="4"/></g><g transform="translate(0,360)"><rect class="string-text" x="0" y="0" width="193" height="24"/><text x="4" y="20">Perfringens</text></g><g transform="translate(193,360)"><rect class="null-text" x="0" y="0" width="88" height="24"/><text x="4" y="4"/></g><g transform="translate(0,384)"><rect class="string-text" x="0" y="0" width="193" height="24"/><text x="4" y="20">APHA_2001</text></g><g transform="translate(193,384)"><rect class="null-text" x="0" y="0" width="88" height="24"/><text x="4" y="4"/></g><g transform="translate(0,408)"><rect class="string-text" x="0" y="0" width="193" height="24"/><text x="4" y="20">Trypticase-sulfite-neomycin</text></g><g transform="translate(193,408)"><rect class="null-text" x="0" y="0" width="88" height="24"/><text x="4" y="4"/></g><g transform="translate(0,432)"><rect class="string-text" x="0" y="0" width="193" height="24"/><text x="4" y="20">Lactose-Sulfite</text></g><g transform="translate(193,432)"><rect class="null-text" x="0" y="0" width="88" height="24"/><text x="4" y="4"/></g><g transform="translate(0,456)"><rect class="string-text" x="0" y="0" width="193" height="24"/><text x="4" y="20">Wilson-Blair</text></g><g transform="translate(193,456)"><rect class="null-text" x="0" y="0" width="88" height="24"/><text x="4" y="4"/></g><g transform="translate(0,480)"><rect class="string-text" x="0" y="0" width="193" height="24"/><text x="4" y="20">AOAC_1998</text></g><g transform="translate(193,480)"><rect class="null-text" x="0" y="0" width="88" height="24"/><text x="4" y="4"/></g></g><g><text x="141" y="16" text-anchor="middle">culture</text></g></g><g class="vtree-node" transform="translate(162,94)"><g transform="translate(0,20)"><g transform="translate(0,0)"><rect class="string-text" x="0" y="0" width="39" height="24"/><text x="4" y="20">label</text></g><g transform="translate(39,0)"><rect class="string-text" x="0" y="0" width="88" height="24"/><text x="4" y="20">essay_enum</text></g><g transform="translate(0,24)"><rect class="string-text" x="0" y="0" width="39" height="24"/><text x="4" y="20">PCR</text></g><g transform="translate(39,24)"><rect class="null-text" x="0" y="0" width="88" height="24"/><text x="4" y="4"/></g></g><g><text x="64" y="16" text-anchor="middle">DNA</text></g></g><g transform="translate(0,20)"><g transform="translate(0,0)"><rect class="string-text" x="0" y="0" width="38" height="24"/><text x="4" y="20">label</text></g><g transform="translate(38,0)"><rect class="string-text" x="0" y="0" width="122" height="24"/><text x="4" y="20">essay_enum_type</text></g></g><g><text x="80" y="16" text-anchor="middle">clostridium_perfringens</text></g></g><g class="vtree-node" transform="translate(26,98)"><path class="vtree-link" d="M80,32C80,91 192,91 192,150"/><path class="vtree-link" d="M80,32C80,151 -30,151 -30,270"/><g class="vtree-node" transform="translate(-137,94)"><g transform="translate(0,20)"><g transform="translate(0,0)"><rect class="string-text" x="0" y="0" width="126" height="24"/><text x="4" y="20">label</text></g><g transform="translate(126,0)"><rect class="string-text" x="0" y="0" width="88" height="24"/><text x="4" y="20">essay_enum</text></g><g transform="translate(0,24)"><rect class="string-text" x="0" y="0" width="126" height="24"/><text x="4" y="20">NA</text></g><g transform="translate(126,24)"><rect class="null-text" x="0" y="0" width="88" height="24"/><text x="4" y="4"/></g><g transform="translate(0,48)"><rect class="string-text" x="0" y="0" width="126" height="24"/><text x="4" y="20">ISO_11290-2</text></g><g transform="translate(126,48)"><rect class="null-text" x="0" y="0" width="88" height="24"/><text x="4" y="4"/></g><g transform="translate(0,72)"><rect class="string-text" x="0" y="0" width="126" height="24"/><text x="4" y="20">ISO_11290-2:1998</text></g><g transform="translate(126,72)"><rect class="null-text" x="0" y="0" width="88" height="24"/><text x="4" y="4"/></g><g transform="translate(0,96)"><rect class="string-text" x="0" y="0" width="126" height="24"/><text x="4" y="20">ISO_11290-2:2004</text></g><g transform="translate(126,96)"><rect class="null-text" x="0" y="0" width="88" height="24"/><text x="4" y="4"/></g><g transform="translate(0,120)"><rect class="string-text" x="0" y="0" width="126" height="24"/><text x="4" y="20">PHLS_F19</text></g><g transform="translate(126,120)"><rect class="null-text" x="0" y="0" width="88" height="24"/><text x="4" y="4"/></g><g transform="translate(0,144)"><rect class="string-text" x="0" y="0" width="126" height="24"/><text x="4" y="20">ListeriaSelective</text></g><g transform="translate(126,144)"><rect class="null-text" x="0" y="0" width="88" height="24"/><text x="4" y="4"/></g><g transform="translate(0,168)"><rect class="string-text" x="0" y="0" width="126" height="24"/><text x="4" y="20">Oxford</text></g><g transform="translate(126,168)"><rect class="null-text" x="0" y="0" width="88" height="24"/><text x="4" y="4"/></g><g transform="translate(0,192)"><rect class="string-text" x="0" y="0" width="126" height="24"/><text x="4" y="20">PALCAM</text></g><g transform="translate(126,192)"><rect class="null-text" x="0" y="0" width="88" height="24"/><text x="4" y="4"/></g><g transform="translate(0,216)"><rect class="string-text" x="0" y="0" width="126" height="24"/><text x="4" y="20">ALOA</text></g><g transform="translate(126,216)"><rect class="null-text" x="0" y="0" width="88" height="24"/><text x="4" y="4"/></g><g transform="translate(0,240)"><rect class="string-text" x="0" y="0" width="126" height="24"/><text x="4" y="20">FSIS-USDA</text></g><g transform="translate(126,240)"><rect class="null-text" x="0" y="0" width="88" height="24"/><text x="4" y="4"/></g><g transform="translate(0,264)"><rect class="string-text" x="0" y="0" width="126" height="24"/><text x="4" y="20">Chromogenic</text></g><g transform="translate(126,264)"><rect class="null-text" x="0" y="0" width="88" height="24"/><text x="4" y="4"/></g><g transform="translate(0,288)"><rect class="string-text" x="0" y="0" width="126" height="24"/><text x="4" y="20">FDA</text></g><g transform="translate(126,288)"><rect class="null-text" x="0" y="0" width="88" height="24"/><text x="4" y="4"/></g></g><g><text x="107" y="16" text-anchor="middle">culture</text></g></g><g class="vtree-node" transform="translate(87,94)"><g transform="translate(0,20)"><g transform="translate(0,0)"><rect class="string-text" x="0" y="0" width="122" height="24"/><text x="4" y="20">label</text></g><g transform="translate(122,0)"><rect class="string-text" x="0" y="0" width="88" height="24"/><text x="4" y="20">essay_enum</text></g><g transform="translate(0,24)"><rect class="string-text" x="0" y="0" width="122" height="24"/><text x="4" y="20">NA</text></g><g transform="translate(122,24)"><rect class="null-text" x="0" y="0" width="88" height="24"/><text x="4" y="4"/></g><g transform="translate(0,48)"><rect class="string-text" x="0" y="0" width="122" height="24"/><text x="4" y="20">ISO 11290-2:1998</text></g><g transform="translate(122,48)"><rect class="null-text" x="0" y="0" width="88" height="24"/><text x="4" y="4"/></g></g><g><text x="105" y="16" text-anchor="middle">NA</text></g></g><g transform="translate(0,20)"><g transform="translate(0,0)"><rect class="string-text" x="0" y="0" width="38" height="24"/><text x="4" y="20">label</text></g><g transform="translate(38,0)"><rect class="string-text" x="0" y="0" width="122" height="24"/><text x="4" y="20">essay_enum_type</text></g></g><g><text x="80" y="16" text-anchor="middle">listeria_monocytogenes</text></g></g><g class="vtree-node" transform="translate(333,98)"><path class="vtree-link" d="M80,44C80,103 80,103 80,162"/><g class="vtree-node" transform="translate(16,118)"><g transform="translate(0,20)"><g transform="translate(0,0)"><rect class="string-text" x="0" y="0" width="40" height="24"/><text x="4" y="20">label</text></g><g transform="translate(40,0)"><rect class="string-text" x="0" y="0" width="88" height="24"/><text x="4" y="20">essay_enum</text></g><g transform="translate(0,24)"><rect class="string-text" x="0" y="0" width="40" height="24"/><text x="4" y="20">MPN</text></g><g transform="translate(40,24)"><rect class="null-text" x="0" y="0" width="88" height="24"/><text x="4" y="4"/></g></g><g><text x="64" y="16" text-anchor="middle">culture</text></g></g><g transform="translate(0,20)"><g transform="translate(0,0)"><rect class="string-text" x="0" y="0" width="38" height="24"/><text x="4" y="20">label</text></g><g transform="translate(38,0)"><rect class="string-text" x="0" y="0" width="122" height="24"/><text x="4" y="20">essay_enum_type</text></g><g transform="translate(0,24)"><rect class="string-text" x="0" y="0" width="38" height="24"/><text x="4" y="20">NA</text></g><g transform="translate(38,24)"><rect class="null-text" x="0" y="0" width="122" height="24"/><text x="4" y="4"/></g></g><g><text x="80" y="16" text-anchor="middle">salmonella_spp</text></g></g><g class="vtree-node" transform="translate(708,98)"><path class="vtree-link" d="M80,44C80,103 302,103 302,162"/><path class="vtree-link" d="M80,44C80,103 142,103 142,162"/><path class="vtree-link" d="M80,44C80,211 -79,211 -79,378"/><g class="vtree-node" transform="translate(-205,118)"><g transform="translate(0,20)"><g transform="translate(0,0)"><rect class="string-text" x="0" y="0" width="163" height="24"/><text x="4" y="20">label</text></g><g transform="translate(163,0)"><rect class="string-text" x="0" y="0" width="88" height="24"/><text x="4" y="20">essay_enum</text></g><g transform="translate(0,24)"><rect class="string-text" x="0" y="0" width="163" height="24"/><text x="4" y="20">NA</text></g><g transform="translate(163,24)"><rect class="null-text" x="0" y="0" width="88" height="24"/><text x="4" y="4"/></g><g transform="translate(0,48)"><rect class="string-text" x="0" y="0" width="163" height="24"/><text x="4" y="20">AOAC_1998</text></g><g transform="translate(163,48)"><rect class="null-text" x="0" y="0" width="88" height="24"/><text x="4" y="4"/></g><g transform="translate(0,72)"><rect class="string-text" x="0" y="0" width="163" height="24"/><text x="4" y="20">APHA_1992</text></g><g transform="translate(163,72)"><rect class="null-text" x="0" y="0" width="88" height="24"/><text x="4" y="4"/></g><g transform="translate(0,96)"><rect class="string-text" x="0" y="0" width="163" height="24"/><text x="4" y="20">APHA_2001</text></g><g transform="translate(163,96)"><rect class="null-text" x="0" y="0" width="88" height="24"/><text x="4" y="4"/></g><g transform="translate(0,120)"><rect class="string-text" x="0" y="0" width="163" height="24"/><text x="4" y="20">BP</text></g><g transform="translate(163,120)"><rect class="null-text" x="0" y="0" width="88" height="24"/><text x="4" y="4"/></g><g transform="translate(0,144)"><rect class="string-text" x="0" y="0" width="163" height="24"/><text x="4" y="20">BP+EY</text></g><g transform="translate(163,144)"><rect class="null-text" x="0" y="0" width="88" height="24"/><text x="4" y="4"/></g><g transform="translate(0,168)"><rect class="string-text" x="0" y="0" width="163" height="24"/><text x="4" y="20">BP+RabbitPlasma</text></g><g transform="translate(163,168)"><rect class="null-text" x="0" y="0" width="88" height="24"/><text x="4" y="4"/></g><g transform="translate(0,192)"><rect class="string-text" x="0" y="0" width="163" height="24"/><text x="4" y="20">Columbia+RabbitPlasma</text></g><g transform="translate(163,192)"><rect class="null-text" x="0" y="0" width="88" height="24"/><text x="4" y="4"/></g><g transform="translate(0,216)"><rect class="string-text" x="0" y="0" width="163" height="24"/><text x="4" y="20">IDF 145A:1997</text></g><g transform="translate(163,216)"><rect class="null-text" x="0" y="0" width="88" height="24"/><text x="4" y="4"/></g><g transform="translate(0,240)"><rect class="string-text" x="0" y="0" width="163" height="24"/><text x="4" y="20">ISO_6888-1:1999</text></g><g transform="translate(163,240)"><rect class="null-text" x="0" y="0" width="88" height="24"/><text x="4" y="4"/></g><g transform="translate(0,264)"><rect class="string-text" x="0" y="0" width="163" height="24"/><text x="4" y="20">ISO_6888-1:2003</text></g><g transform="translate(163,264)"><rect class="null-text" x="0" y="0" width="88" height="24"/><text x="4" y="4"/></g><g transform="translate(0,288)"><rect class="string-text" x="0" y="0" width="163" height="24"/><text x="4" y="20">ISO_6888-2:1999</text></g><g transform="translate(163,288)"><rect class="null-text" x="0" y="0" width="88" height="24"/><text x="4" y="4"/></g><g transform="translate(0,312)"><rect class="string-text" x="0" y="0" width="163" height="24"/><text x="4" y="20">ISO_6888-2:2003</text></g><g transform="translate(163,312)"><rect class="null-text" x="0" y="0" width="88" height="24"/><text x="4" y="4"/></g><g transform="translate(0,336)"><rect class="string-text" x="0" y="0" width="163" height="24"/><text x="4" y="20">ISO_6888-3:2003</text></g><g transform="translate(163,336)"><rect class="null-text" x="0" y="0" width="88" height="24"/><text x="4" y="4"/></g><g transform="translate(0,360)"><rect class="string-text" x="0" y="0" width="163" height="24"/><text x="4" y="20">KRANEP</text></g><g transform="translate(163,360)"><rect class="null-text" x="0" y="0" width="88" height="24"/><text x="4" y="4"/></g><g transform="translate(0,384)"><rect class="string-text" x="0" y="0" width="163" height="24"/><text x="4" y="20">MS</text></g><g transform="translate(163,384)"><rect class="null-text" x="0" y="0" width="88" height="24"/><text x="4" y="4"/></g><g transform="translate(0,408)"><rect class="string-text" x="0" y="0" width="163" height="24"/><text x="4" y="20">NMKL_66</text></g><g transform="translate(163,408)"><rect class="null-text" x="0" y="0" width="88" height="24"/><text x="4" y="4"/></g><g transform="translate(0,432)"><rect class="string-text" x="0" y="0" width="163" height="24"/><text x="4" y="20">Petrifilm</text></g><g transform="translate(163,432)"><rect class="null-text" x="0" y="0" width="88" height="24"/><text x="4" y="4"/></g><g transform="translate(0,456)"><rect class="string-text" x="0" y="0" width="163" height="24"/><text x="4" y="20">PHLS_F12</text></g><g transform="translate(163,456)"><rect class="null-text" x="0" y="0" width="88" height="24"/><text x="4" y="4"/></g></g><g><text x="126" y="16" text-anchor="middle">culture</text></g></g><g class="vtree-node" transform="translate(56,118)"><g transform="translate(0,20)"><g transform="translate(0,0)"><rect class="string-text" x="0" y="0" width="84" height="24"/><text x="4" y="20">label</text></g><g transform="translate(84,0)"><rect class="string-text" x="0" y="0" width="88" height="24"/><text x="4" y="20">essay_enum</text></g><g transform="translate(0,24)"><rect class="string-text" x="0" y="0" width="84" height="24"/><text x="4" y="20">VIDAS-SET</text></g><g transform="translate(84,24)"><rect class="null-text" x="0" y="0" width="88" height="24"/><text x="4" y="4"/></g></g><g><text x="86" y="16" text-anchor="middle">immuno</text></g></g><g class="vtree-node" transform="translate(238,118)"><g transform="translate(0,20)"><g transform="translate(0,0)"><rect class="string-text" x="0" y="0" width="39" height="24"/><text x="4" y="20">label</text></g><g transform="translate(39,0)"><rect class="string-text" x="0" y="0" width="88" height="24"/><text x="4" y="20">essay_enum</text></g><g transform="translate(0,24)"><rect class="string-text" x="0" y="0" width="39" height="24"/><text x="4" y="20">PCR</text></g><g transform="translate(39,24)"><rect class="null-text" x="0" y="0" width="88" height="24"/><text x="4" y="4"/></g></g><g><text x="64" y="16" text-anchor="middle">DNA</text></g></g><g transform="translate(0,20)"><g transform="translate(0,0)"><rect class="string-text" x="0" y="0" width="38" height="24"/><text x="4" y="20">label</text></g><g transform="translate(38,0)"><rect class="string-text" x="0" y="0" width="122" height="24"/><text x="4" y="20">essay_enum_type</text></g><g transform="translate(0,24)"><rect class="string-text" x="0" y="0" width="38" height="24"/><text x="4" y="20">NA</text></g><g transform="translate(38,24)"><rect class="null-text" x="0" y="0" width="122" height="24"/><text x="4" y="4"/></g></g><g><text x="80" y="16" text-anchor="middle">staphylococcus_aureus</text></g></g><g class="vtree-node" transform="translate(1083,98)"><path class="vtree-link" d="M80,44C80,103 80,103 80,162"/><g class="vtree-node" transform="translate(16,118)"><g transform="translate(0,20)"><g transform="translate(0,0)"><rect class="string-text" x="0" y="0" width="40" height="24"/><text x="4" y="20">label</text></g><g transform="translate(40,0)"><rect class="string-text" x="0" y="0" width="88" height="24"/><text x="4" y="20">essay_enum</text></g><g transform="translate(0,24)"><rect class="string-text" x="0" y="0" width="40" height="24"/><text x="4" y="20">MPN</text></g><g transform="translate(40,24)"><rect class="null-text" x="0" y="0" width="88" height="24"/><text x="4" y="4"/></g></g><g><text x="64" y="16" text-anchor="middle">culture</text></g></g><g transform="translate(0,20)"><g transform="translate(0,0)"><rect class="string-text" x="0" y="0" width="38" height="24"/><text x="4" y="20">label</text></g><g transform="translate(38,0)"><rect class="string-text" x="0" y="0" width="122" height="24"/><text x="4" y="20">essay_enum_type</text></g><g transform="translate(0,24)"><rect class="string-text" x="0" y="0" width="38" height="24"/><text x="4" y="20">NA</text></g><g transform="translate(38,24)"><rect class="null-text" x="0" y="0" width="122" height="24"/><text x="4" y="4"/></g></g><g><text x="80" y="16" text-anchor="middle">yersinia_enterocolitica</text></g></g><g transform="translate(0,0)"><rect class="string-text" x="0" y="0" width="231" height="24"/><text x="4" y="20">label</text></g><g transform="translate(231,0)"><rect class="string-text" x="0" y="0" width="45" height="24"/><text x="4" y="20">agent</text></g><g transform="translate(0,24)"><rect class="string-text" x="0" y="0" width="231" height="24"/><text x="4" y="20">shigatoxin_producing_escherichia...</text></g><g transform="translate(231,24)"><rect class="null-text" x="0" y="0" width="45" height="24"/><text x="4" y="4"/></g></g></g></g></svg>